<svg xmlns="http://www.w3.org/2000/svg" width="107" height="50" viewBox="0 0 107 50" fill="none"><rect x="0.982422" width="105.85" height="50" rx="7.875" fill="#F1F6FF"></rect><g clip-path="url(#clip0_1073_711)"><path d="M43.9168 21.1455C43.9168 21.7196 43.9779 22.1849 44.0845 22.5262C44.2197 22.9102 44.3826 23.2835 44.5717 23.6431C44.6479 23.7672 44.6782 23.8913 44.6782 24C44.6782 24.155 44.587 24.3102 44.389 24.4654L43.4296 25.1169C43.2925 25.21 43.1554 25.2565 43.0334 25.2565C42.8812 25.2565 42.7289 25.1789 42.5765 25.0393C42.3714 24.8147 42.1878 24.5705 42.0284 24.3102C41.876 24.0467 41.7237 23.7517 41.5562 23.395C40.3683 24.8221 38.8756 25.5358 37.0786 25.5358C35.7994 25.5358 34.7789 25.1634 34.0326 24.4189C33.2865 23.6741 32.9058 22.6813 32.9058 21.4403C32.9058 20.1217 33.3626 19.0513 34.2917 18.2446C35.2206 17.4379 36.4543 17.0346 38.023 17.0346C38.5407 17.0346 39.0738 17.0811 39.6372 17.1587C40.2008 17.2363 40.7795 17.3603 41.3888 17.5V16.3675C41.3888 15.1884 41.145 14.3664 40.6728 13.8854C40.1856 13.4045 39.3631 13.1717 38.1904 13.1717C37.6573 13.1717 37.1092 13.2339 36.5456 13.3735C35.9821 13.513 35.4338 13.6837 34.9008 13.901C34.6571 14.0095 34.4744 14.0715 34.3677 14.1026C34.2611 14.1338 34.185 14.1491 34.1241 14.1491C33.9108 14.1491 33.8043 13.9939 33.8043 13.6682V12.908C33.8043 12.6598 33.8348 12.4737 33.9108 12.3652C33.987 12.2565 34.1241 12.1479 34.3373 12.0394C34.8704 11.7602 35.51 11.5274 36.2561 11.3413C37.0026 11.1396 37.7946 11.0466 38.6322 11.0466C40.4446 11.0466 41.7697 11.4653 42.6225 12.3031C43.4601 13.1408 43.8866 14.4128 43.8866 16.1194V21.1455H43.9172H43.9168ZM37.7335 23.5035C38.2362 23.5035 38.754 23.4105 39.3022 23.2242C39.8505 23.0381 40.3379 22.6968 40.749 22.2314C40.9928 21.9368 41.1755 21.611 41.2668 21.2386C41.3582 20.8664 41.4191 20.4164 41.4191 19.8889V19.2374C40.9573 19.1229 40.4895 19.0349 40.0179 18.9737C39.5431 18.9123 39.065 18.8812 38.5864 18.8806C37.5659 18.8806 36.8197 19.0822 36.3172 19.5011C35.8145 19.9201 35.5709 20.5095 35.5709 21.2851C35.5709 22.0142 35.7536 22.5572 36.1343 22.9296C36.4999 23.3174 37.033 23.5035 37.7335 23.5035ZM49.9631 25.1789C49.6889 25.1789 49.5062 25.1324 49.3844 25.0237C49.2626 24.9308 49.1558 24.7135 49.0646 24.4189L45.4857 12.4272C45.394 12.1168 45.3484 11.9152 45.3484 11.8066C45.3484 11.5585 45.4702 11.4187 45.714 11.4187H47.2065C47.4957 11.4187 47.6939 11.4653 47.8005 11.5739C47.9223 11.667 48.0137 11.8842 48.105 12.1789L50.6636 22.4487L53.0395 12.1789C53.1156 11.8687 53.2071 11.667 53.3287 11.5739C53.4507 11.4809 53.664 11.4188 53.9381 11.4188H55.1564C55.4457 11.4188 55.6439 11.4653 55.7655 11.5739C55.8875 11.667 55.994 11.8842 56.0549 12.1789L58.4614 22.5727L61.0959 12.1789C61.1872 11.8687 61.2939 11.667 61.4005 11.5739C61.5223 11.4809 61.7203 11.4188 61.9944 11.4188H63.4107C63.6545 11.4188 63.7916 11.5429 63.7916 11.8066C63.7916 11.8842 63.7764 11.9618 63.7611 12.0548C63.7458 12.1479 63.7155 12.272 63.6545 12.4428L59.984 24.4343C59.8927 24.7447 59.7862 24.9463 59.6642 25.0393C59.5424 25.1324 59.3444 25.1945 59.0857 25.1945H57.7759C57.4865 25.1945 57.2885 25.148 57.1665 25.0393C57.0447 24.9308 56.9382 24.7291 56.8773 24.4189L54.5165 14.4128L52.1711 24.4032C52.0951 24.7135 52.0037 24.9152 51.8819 25.0237C51.7601 25.1324 51.5468 25.1789 51.2728 25.1789H49.9629H49.9631ZM69.5333 25.5978C68.7414 25.5978 67.9494 25.5047 67.188 25.3186C66.4264 25.1324 65.8326 24.9306 65.4366 24.6982C65.1928 24.5584 65.0252 24.4033 64.9645 24.2637C64.9052 24.1268 64.874 23.9789 64.873 23.8293V23.0381C64.873 22.7124 64.9948 22.5572 65.2234 22.5572C65.3166 22.5575 65.4092 22.5733 65.4975 22.6038C65.5888 22.635 65.7259 22.6968 65.8782 22.7588C66.4162 22.9999 66.9777 23.1819 67.5534 23.3018C68.15 23.4251 68.7572 23.4875 69.3659 23.4879C70.3253 23.4879 71.0716 23.3174 71.5894 22.9761C72.1072 22.6348 72.3814 22.1385 72.3814 21.5023C72.3814 21.0681 72.2443 20.7112 71.9701 20.4164C71.6959 20.1217 71.1782 19.858 70.432 19.6097L68.2236 18.9117C67.1118 18.5548 66.2895 18.0274 65.7868 17.3292C65.2843 16.6466 65.0254 15.8866 65.0254 15.0799C65.0254 14.4284 65.1625 13.8543 65.4366 13.3578C65.7106 12.8615 66.0762 12.4272 66.5331 12.0859C66.99 11.729 67.5078 11.4653 68.117 11.2792C68.7261 11.0931 69.3657 11.0155 70.0359 11.0155C70.3709 11.0155 70.7213 11.0311 71.0563 11.0775C71.4067 11.124 71.7265 11.1861 72.0463 11.2481C72.3508 11.3257 72.6403 11.4033 72.9144 11.4964C73.1886 11.5894 73.4017 11.6826 73.554 11.7755C73.7673 11.8998 73.9195 12.0239 74.0109 12.1635C74.1024 12.2876 74.148 12.4581 74.148 12.6754V13.4045C74.148 13.7302 74.0262 13.901 73.7977 13.901C73.6758 13.901 73.4779 13.8387 73.2191 13.7147C72.3508 13.3113 71.3761 13.1096 70.2949 13.1096C69.4268 13.1096 68.7414 13.2493 68.2692 13.5441C67.7972 13.8387 67.5534 14.2888 67.5534 14.9247C67.5534 15.3592 67.7058 15.7314 68.0103 16.0262C68.315 16.3209 68.8785 16.6157 69.6857 16.8794L71.8483 17.5776C72.9448 17.9344 73.7368 18.4307 74.2089 19.0667C74.6811 19.7028 74.9096 20.4319 74.9096 21.2386C74.9096 21.9057 74.7723 22.5107 74.5134 23.0381C74.2395 23.5655 73.8738 24.0309 73.4017 24.4033C72.9295 24.7911 72.3661 25.0704 71.7112 25.2721C71.0258 25.4893 70.31 25.5978 69.5333 25.5978V25.5978Z" fill="#252F3E"></path><path d="M72.4115 33.1372C67.4011 36.907 60.1211 38.9081 53.8618 38.9081C45.0893 38.9081 37.1852 35.6038 31.2151 30.1121C30.743 29.6778 31.1693 29.0884 31.7327 29.4295C38.1902 33.2459 46.1554 35.5573 54.3948 35.5573C59.9536 35.5573 66.0608 34.3784 71.6807 31.9583C72.5183 31.5703 73.234 32.5168 72.4115 33.1372V33.1372ZM74.4982 30.7171C73.8586 29.8795 70.2642 30.3138 68.6346 30.5155C68.1472 30.5777 68.071 30.1432 68.5128 29.8175C71.376 27.7696 76.0821 28.3593 76.6302 29.0417C77.1786 29.7399 76.4779 34.5334 73.7975 36.8294C73.3864 37.1862 72.9904 37.0001 73.1731 36.5347C73.7822 34.9988 75.1378 31.5394 74.4982 30.7171V30.7171Z" fill="#FF9900"></path></g><defs><clipPath id="clip0_1073_711"><rect width="46" height="28" fill="white" transform="translate(30.9075 11)"></rect></clipPath></defs></svg>