<svg xmlns="http://www.w3.org/2000/svg" width="1920" height="634" viewBox="0 0 1920 634" fill="none"><g clip-path="url(#clip0_390_243)"><g opacity="0.2"><path d="M-278.841 494.099C-267.014 513.796 -256.318 535.401 -245.614 557.127L-244.797 558.784C-234.357 579.976 -223.88 601.243 -212.286 621.002C-188.482 661.567 -160.083 695.572 -117.948 709.411C-75.727 723.278 -35.2092 714.191 2.87242 695.167C39.0014 677.119 72.8147 650.191 103.678 625.612C105.364 624.27 107.041 622.934 108.709 621.607C133.28 602.065 144.866 572.796 155.727 542.379C156.508 540.191 157.286 537.997 158.065 535.8C168.074 507.555 178.233 478.891 198.421 457.196C212.869 441.669 231.033 429.969 250.481 419.86C263.284 413.205 276.698 407.215 289.988 401.28C296.859 398.212 303.697 395.158 310.4 392.035C349.849 373.656 384.868 352.771 397.149 311.764C423.076 225.195 395.904 107.59 323.773 40.2288C287.948 6.77269 243.233 -6.80137 195.931 -11.4318C156.814 -15.261 116.026 -12.9684 77.108 -10.7808C68.9337 -10.3214 60.8418 -9.86652 52.8651 -9.47401C20.6948 -7.891 -5.53957 7.739 -31.8702 24.2074C-33.0466 24.9433 -34.2233 25.6808 -35.4008 26.4188C-60.502 42.1516 -85.9363 58.0933 -116.69 62.2225C-138.072 65.0933 -160.935 62.129 -184.097 56.9772C-198.999 53.6627 -214.096 49.4237 -229.023 45.2324C-237.269 42.9171 -245.464 40.6164 -253.544 38.4941C-299.161 26.5136 -341.251 20.203 -371.541 47.339C-400.238 73.0484 -404.308 112.495 -398.927 156.163C-396.239 177.974 -391.203 200.764 -385.76 223.313C-384.219 229.696 -382.645 236.062 -381.083 242.38C-377.13 258.363 -373.253 274.043 -370.178 288.932C-354.985 362.486 -318.718 427.685 -278.841 494.099Z" stroke="#9C93E3" stroke-opacity="0.58" stroke-width="2"></path><path d="M-234.893 459.384C-224.824 476.154 -215.72 494.548 -206.612 513.038L-205.919 514.446C-197.035 532.485 -188.122 550.581 -178.257 567.393C-158.005 601.909 -133.854 630.805 -98.026 642.55C-62.1217 654.321 -27.6481 646.585 4.77946 630.384C35.5486 615.012 64.3525 592.082 90.6562 571.143C92.0919 570 93.5201 568.863 94.9407 567.734C115.844 551.116 125.716 526.232 134.982 500.329C135.65 498.464 136.314 496.594 136.979 494.721C145.515 470.678 154.19 446.245 171.417 427.746C183.747 414.505 199.241 404.528 215.819 395.91C226.732 390.238 238.168 385.129 249.494 380.07C255.347 377.456 261.171 374.854 266.877 372.195C300.487 356.533 330.271 338.762 340.732 303.911C362.843 230.248 339.761 130.198 278.394 72.9235C247.927 44.4885 209.883 32.9583 169.613 29.0373C136.307 25.7945 101.577 27.7618 68.4252 29.6398C61.461 30.0343 54.5664 30.4249 47.7693 30.7623C20.4105 32.1207 -1.91244 45.4151 -24.3519 59.4476C-25.357 60.0762 -26.3623 60.7062 -27.3683 61.3366C-48.75 74.7363 -70.4478 88.3341 -96.6801 91.8664C-114.921 94.3226 -134.417 91.8038 -154.151 87.4258C-166.847 84.6092 -179.713 81.0043 -192.43 77.4414C-199.452 75.474 -206.428 73.5193 -213.305 71.7173C-252.163 61.5345 -287.932 56.2077 -313.679 79.2624C-338.082 101.113 -341.574 134.634 -337.012 171.797C-334.733 190.355 -330.455 209.748 -325.829 228.942C-324.52 234.374 -323.182 239.791 -321.854 245.169C-318.495 258.775 -315.198 272.126 -312.585 284.803C-299.682 347.389 -268.831 402.86 -234.893 459.384Z" stroke="#9C93E3" stroke-opacity="0.58" stroke-width="2"></path><path d="M-183.273 418.767C-175.242 432.141 -167.982 446.808 -160.722 461.543L-160.171 462.662C-153.088 477.041 -145.986 491.457 -138.128 504.85C-121.993 532.347 -102.781 555.322 -74.3175 564.666C-45.7907 574.031 -18.3961 567.898 7.39982 555.012C31.8828 542.781 54.8027 524.53 75.7514 507.849C76.8927 506.94 78.0283 506.036 79.1579 505.137C95.7528 491.94 103.593 472.166 110.968 451.524C111.5 450.036 112.029 448.543 112.559 447.049C119.347 427.901 126.262 408.398 140.006 393.631C149.845 383.06 162.205 375.101 175.416 368.234C184.111 363.715 193.229 359.643 202.253 355.613C206.912 353.532 211.547 351.462 216.085 349.347C242.847 336.878 266.488 322.757 274.783 295.077C292.352 236.45 273.951 156.798 225.115 111.2C200.887 88.5772 170.634 79.3896 138.585 76.2568C112.074 73.6653 84.433 75.2221 58.0284 76.7093C52.4801 77.0218 46.9864 77.3312 41.5693 77.5984C19.8412 78.6701 2.10819 89.2262 -15.7649 100.404C-16.5688 100.907 -17.373 101.411 -18.1779 101.916C-35.1945 112.581 -52.5076 123.433 -73.447 126.247C-88.0126 128.204 -103.571 126.185 -119.3 122.689C-129.418 120.44 -139.679 117.561 -149.813 114.717C-155.405 113.148 -160.959 111.589 -166.429 110.154C-197.394 102.026 -225.771 97.8112 -246.18 116.093C-265.535 133.43 -268.317 160.055 -264.672 189.656C-262.853 204.433 -259.442 219.879 -255.751 235.173C-254.708 239.498 -253.641 243.814 -252.582 248.099C-249.901 258.943 -247.27 269.589 -245.184 279.695C-234.895 329.533 -210.321 373.718 -183.273 418.767Z" stroke="#9C93E3" stroke-opacity="0.58" stroke-width="2"></path><path d="M-317.79 524.696C-304.433 546.942 -292.355 571.344 -280.264 595.889L-279.342 597.763C-267.55 621.703 -255.716 645.732 -242.616 668.057C-215.723 713.89 -183.614 752.336 -135.936 767.969C-88.1617 783.633 -42.3093 773.331 0.772865 751.807C41.6419 731.389 79.895 700.937 114.798 673.151C116.706 671.632 118.604 670.121 120.492 668.62C148.314 646.501 161.438 613.389 173.733 579.017C174.617 576.545 175.497 574.067 176.378 571.585C187.712 539.66 199.204 507.289 222.022 482.785C238.351 465.248 258.878 452.026 280.865 440.597C295.341 433.073 310.502 426.301 325.529 419.589C333.299 416.118 341.033 412.663 348.618 409.129C393.229 388.341 432.881 364.704 446.806 318.306C476.179 220.432 445.515 87.5066 363.964 11.3905C323.45 -26.4238 272.87 -41.7467 219.378 -46.9573C175.143 -51.266 129.016 -48.6545 85.0147 -46.1633C75.7739 -45.6401 66.6269 -45.1223 57.6109 -44.6749C21.1989 -42.8683 -8.4972 -25.174 -38.2719 -6.55408C-39.6001 -5.72349 -40.9284 -4.89105 -42.2575 -4.05813C-70.6511 13.7356 -99.3924 31.7472 -134.134 36.4242C-158.285 39.6753 -184.113 36.3411 -210.29 30.5326C-227.132 26.7953 -244.191 22.0149 -261.062 17.2871C-270.385 14.6746 -279.65 12.0783 -288.789 9.68284C-340.348 -3.83033 -388.004 -10.966 -422.323 19.7647C-454.829 48.8724 -459.446 93.5027 -453.385 142.851C-450.358 167.502 -444.675 193.257 -438.533 218.735C-436.794 225.949 -435.018 233.142 -433.255 240.281C-428.796 258.338 -424.422 276.05 -420.954 292.871C-403.814 375.999 -362.837 449.669 -317.79 524.696Z" stroke="#9C93E3" stroke-opacity="0.58" stroke-width="2"></path><path d="M-354.963 554.092C-340.114 578.823 -326.684 605.951 -313.237 633.241L-312.211 635.326C-299.098 661.942 -285.934 688.662 -271.366 713.489C-241.459 764.457 -205.745 807.242 -152.724 824.657C-99.5977 842.106 -48.6286 830.665 -0.761989 806.754C44.6424 784.072 87.1324 750.233 125.892 719.365C128.012 717.677 130.121 715.998 132.218 714.33C163.142 689.734 177.712 652.906 191.351 614.707C192.332 611.961 193.308 609.207 194.285 606.451C206.861 570.963 219.604 535.005 244.925 507.794C263.045 488.321 285.831 473.641 310.247 460.95C326.322 452.594 343.157 445.076 359.846 437.624C368.478 433.769 377.07 429.932 385.498 426.005C435.051 402.919 479.132 376.647 494.591 325.029C527.18 216.212 493.03 68.3928 402.351 -16.2905C357.293 -58.3696 301.061 -75.4334 241.614 -81.2535C192.458 -86.0661 141.201 -83.1853 92.3168 -80.438C82.0512 -79.8611 71.8902 -79.29 61.8754 -78.7973C21.3891 -76.8055 -11.6163 -57.1344 -44.6831 -36.4528C-46.1562 -35.5314 -47.6295 -34.608 -49.1035 -33.6841C-80.644 -13.9155 -112.547 6.08003 -151.117 11.2584C-177.926 14.8577 -206.607 11.1419 -235.688 4.67322C-254.399 0.511117 -273.347 -4.8095 -292.091 -10.0726C-302.45 -12.9815 -312.747 -15.8729 -322.907 -18.5413C-380.191 -33.5868 -433.202 -41.5638 -471.362 -7.37654C-507.5 24.9996 -512.599 74.6549 -505.837 129.522C-502.459 156.932 -496.13 185.569 -489.292 213.894C-487.356 221.915 -485.378 229.912 -483.416 237.85C-478.452 257.924 -473.583 277.611 -469.721 296.308C-450.628 388.743 -405.053 470.67 -354.963 554.092Z" stroke="#9C93E3" stroke-opacity="0.58" stroke-width="2"></path></g><g opacity="0.2"><path d="M1512.16 208.099C1523.99 227.796 1534.68 249.401 1545.39 271.127L1546.2 272.784C1556.64 293.976 1567.12 315.243 1578.71 335.002C1602.52 375.567 1630.92 409.572 1673.05 423.411C1715.27 437.278 1755.79 428.191 1793.87 409.167C1830 391.119 1863.81 364.191 1894.68 339.612C1896.36 338.27 1898.04 336.934 1899.71 335.607C1924.28 316.065 1935.87 286.796 1946.73 256.379C1947.51 254.191 1948.29 251.997 1949.06 249.8C1959.07 221.555 1969.23 192.891 1989.42 171.196C2003.87 155.669 2022.03 143.969 2041.48 133.86C2054.28 127.205 2067.7 121.215 2080.99 115.28C2087.86 112.212 2094.7 109.158 2101.4 106.035C2140.85 87.6558 2175.87 66.7709 2188.15 25.764C2214.08 -60.8054 2186.9 -178.41 2114.77 -245.771C2078.95 -279.227 2034.23 -292.801 1986.93 -297.432C1947.81 -301.261 1907.03 -298.968 1868.11 -296.781C1859.93 -296.321 1851.84 -295.867 1843.87 -295.474C1811.69 -293.891 1785.46 -278.261 1759.13 -261.793C1757.95 -261.057 1756.78 -260.319 1755.6 -259.581C1730.5 -243.848 1705.06 -227.907 1674.31 -223.777C1652.93 -220.907 1630.07 -223.871 1606.9 -229.023C1592 -232.337 1576.9 -236.576 1561.98 -240.768C1553.73 -243.083 1545.54 -245.384 1537.46 -247.506C1491.84 -259.486 1449.75 -265.797 1419.46 -238.661C1390.76 -212.952 1386.69 -173.505 1392.07 -129.837C1394.76 -108.026 1399.8 -85.2365 1405.24 -62.6871C1406.78 -56.3042 1408.36 -49.9385 1409.92 -43.6202C1413.87 -27.6371 1417.75 -11.9572 1420.82 2.93193C1436.01 76.4862 1472.28 141.685 1512.16 208.099Z" stroke="#C3BBFF" stroke-opacity="0.75" stroke-width="2"></path><path d="M1556.11 173.384C1566.18 190.154 1575.28 208.548 1584.39 227.038L1585.08 228.446C1593.97 246.485 1602.88 264.581 1612.74 281.393C1633 315.909 1657.15 344.805 1692.97 356.55C1728.88 368.321 1763.35 360.585 1795.78 344.384C1826.55 329.012 1855.35 306.082 1881.66 285.143C1883.09 284 1884.52 282.863 1885.94 281.734C1906.84 265.116 1916.72 240.232 1925.98 214.329C1926.65 212.464 1927.31 210.594 1927.98 208.721C1936.52 184.678 1945.19 160.245 1962.42 141.746C1974.75 128.505 1990.24 118.528 2006.82 109.91C2017.73 104.238 2029.17 99.1293 2040.49 94.07C2046.35 91.4555 2052.17 88.8542 2057.88 86.195C2091.49 70.5333 2121.27 52.762 2131.73 17.9106C2153.84 -55.7518 2130.76 -155.802 2069.39 -213.077C2038.93 -241.512 2000.88 -253.042 1960.61 -256.963C1927.31 -260.206 1892.58 -258.238 1859.43 -256.36C1852.46 -255.966 1845.57 -255.575 1838.77 -255.238C1811.41 -253.879 1789.09 -240.585 1766.65 -226.552C1765.64 -225.924 1764.64 -225.294 1763.63 -224.663C1742.25 -211.264 1720.55 -197.666 1694.32 -194.134C1676.08 -191.677 1656.58 -194.196 1636.85 -198.574C1624.15 -201.391 1611.29 -204.996 1598.57 -208.559C1591.55 -210.526 1584.57 -212.481 1577.7 -214.283C1538.84 -224.465 1503.07 -229.792 1477.32 -206.738C1452.92 -184.887 1449.43 -151.366 1453.99 -114.203C1456.27 -95.6446 1460.54 -76.2515 1465.17 -57.058C1466.48 -51.6265 1467.82 -46.2089 1469.15 -40.8312C1472.51 -27.225 1475.8 -13.8738 1478.42 -1.19673C1491.32 61.389 1522.17 116.86 1556.11 173.384Z" stroke="#C3BBFF" stroke-opacity="0.75" stroke-width="2"></path><path d="M1607.73 132.767C1615.76 146.141 1623.02 160.808 1630.28 175.543L1630.83 176.662C1637.91 191.041 1645.01 205.457 1652.87 218.85C1669.01 246.347 1688.22 269.322 1716.68 278.666C1745.21 288.031 1772.6 281.898 1798.4 269.012C1822.88 256.781 1845.8 238.53 1866.75 221.849C1867.89 220.94 1869.03 220.036 1870.16 219.137C1886.75 205.94 1894.59 186.166 1901.97 165.524C1902.5 164.036 1903.03 162.543 1903.56 161.049C1910.35 141.901 1917.26 122.398 1931.01 107.631C1940.84 97.0599 1953.2 89.1015 1966.42 82.2342C1975.11 77.7147 1984.23 73.6425 1993.25 69.6125C1997.91 67.5315 2002.55 65.4617 2007.08 63.3474C2033.85 50.8782 2057.49 36.757 2065.78 9.07675C2083.35 -49.5503 2064.95 -129.202 2016.12 -174.8C1991.89 -197.423 1961.63 -206.61 1929.58 -209.743C1903.07 -212.335 1875.43 -210.778 1849.03 -209.291C1843.48 -208.978 1837.99 -208.669 1832.57 -208.402C1810.84 -207.33 1793.11 -196.774 1775.24 -185.596C1774.43 -185.093 1773.63 -184.589 1772.82 -184.084C1755.81 -173.419 1738.49 -162.567 1717.55 -159.753C1702.99 -157.796 1687.43 -159.815 1671.7 -163.311C1661.58 -165.56 1651.32 -168.439 1641.19 -171.283C1635.59 -172.852 1630.04 -174.411 1624.57 -175.846C1593.61 -183.974 1565.23 -188.189 1544.82 -169.907C1525.47 -152.57 1522.68 -125.945 1526.33 -96.3437C1528.15 -81.5668 1531.56 -66.1215 1535.25 -50.8274C1536.29 -46.5016 1537.36 -42.1858 1538.42 -37.9012C1541.1 -27.0568 1543.73 -16.4114 1545.82 -6.30522C1556.11 43.5332 1580.68 87.7178 1607.73 132.767Z" stroke="#C3BBFF" stroke-opacity="0.75" stroke-width="2"></path><path d="M1473.21 238.696C1486.57 260.942 1498.65 285.344 1510.74 309.889L1511.66 311.763C1523.45 335.703 1535.28 359.732 1548.38 382.057C1575.28 427.89 1607.39 466.336 1655.06 481.969C1702.84 497.633 1748.69 487.331 1791.77 465.807C1832.64 445.389 1870.89 414.937 1905.8 387.151C1907.71 385.632 1909.6 384.121 1911.49 382.62C1939.31 360.501 1952.44 327.389 1964.73 293.017C1965.62 290.545 1966.5 288.067 1967.38 285.585C1978.71 253.66 1990.2 221.289 2013.02 196.785C2029.35 179.248 2049.88 166.026 2071.87 154.597C2086.34 147.073 2101.5 140.301 2116.53 133.589C2124.3 130.118 2132.03 126.663 2139.62 123.129C2184.23 102.341 2223.88 78.7042 2237.81 32.3056C2267.18 -65.5681 2236.51 -198.493 2154.96 -274.609C2114.45 -312.424 2063.87 -327.747 2010.38 -332.957C1966.14 -337.266 1920.02 -334.654 1876.01 -332.163C1866.77 -331.64 1857.63 -331.122 1848.61 -330.675C1812.2 -328.868 1782.5 -311.174 1752.73 -292.554C1751.4 -291.723 1750.07 -290.891 1748.74 -290.058C1720.35 -272.264 1691.61 -254.253 1656.87 -249.576C1632.72 -246.325 1606.89 -249.659 1580.71 -255.467C1563.87 -259.205 1546.81 -263.985 1529.94 -268.713C1520.62 -271.325 1511.35 -273.922 1502.21 -276.317C1450.65 -289.83 1403 -296.966 1368.68 -266.235C1336.17 -237.128 1331.55 -192.497 1337.61 -143.149C1340.64 -118.498 1346.32 -92.7429 1352.47 -67.2648C1354.21 -60.0514 1355.98 -52.8582 1357.74 -45.7189C1362.2 -27.6616 1366.58 -9.94961 1370.05 6.8705C1387.19 89.9992 1428.16 163.669 1473.21 238.696Z" stroke="#C3BBFF" stroke-opacity="0.75" stroke-width="2"></path><path d="M1436.04 268.092C1450.89 292.823 1464.32 319.951 1477.76 347.241L1478.79 349.326C1491.9 375.942 1505.07 402.662 1519.63 427.489C1549.54 478.457 1585.25 521.242 1638.28 538.657C1691.4 556.106 1742.37 544.665 1790.24 520.754C1835.64 498.072 1878.13 464.233 1916.89 433.365C1919.01 431.677 1921.12 429.998 1923.22 428.33C1954.14 403.734 1968.71 366.906 1982.35 328.707C1983.33 325.961 1984.31 323.207 1985.28 320.451C1997.86 284.963 2010.6 249.005 2035.93 221.794C2054.05 202.321 2076.83 187.641 2101.25 174.95C2117.32 166.594 2134.16 159.076 2150.85 151.624C2159.48 147.769 2168.07 143.932 2176.5 140.005C2226.05 116.919 2270.13 90.6468 2285.59 39.0293C2318.18 -69.7878 2284.03 -217.607 2193.35 -302.291C2148.29 -344.37 2092.06 -361.433 2032.61 -367.254C1983.46 -372.066 1932.2 -369.185 1883.32 -366.438C1873.05 -365.861 1862.89 -365.29 1852.88 -364.797C1812.39 -362.805 1779.38 -343.134 1746.32 -322.453C1744.84 -321.531 1743.37 -320.608 1741.9 -319.684C1710.36 -299.916 1678.45 -279.92 1639.88 -274.742C1613.07 -271.142 1584.39 -274.858 1555.31 -281.327C1536.6 -285.489 1517.65 -290.81 1498.91 -296.073C1488.55 -298.982 1478.25 -301.873 1468.09 -304.541C1410.81 -319.587 1357.8 -327.564 1319.64 -293.377C1283.5 -261 1278.4 -211.345 1285.16 -156.478C1288.54 -129.068 1294.87 -100.431 1301.71 -72.106C1303.64 -64.0853 1305.62 -56.0877 1307.58 -48.1504C1312.55 -28.0764 1317.42 -8.38851 1321.28 10.3084C1340.37 102.743 1385.95 184.67 1436.04 268.092Z" stroke="#C3BBFF" stroke-opacity="0.75" stroke-width="2"></path></g></g><defs><clipPath id="clip0_390_243"><rect width="1920" height="634" fill="white"></rect></clipPath></defs></svg>