<svg xmlns="http://www.w3.org/2000/svg" xmlns:xlink="http://www.w3.org/1999/xlink" xmlns:v="https://vecta.io/nano" width="598" height="442" fill="none"><style><![CDATA[.B{fill:#fff}.C{fill:#263238}.D{opacity:.3}.E{fill:#503af2}.F{fill:#000}.G{opacity:.5}.H{opacity:.1}.I{opacity:.7}.J{opacity:.2}.K{opacity:.6}.L{fill:#eaece0}.M{opacity:.4}.N{fill:#ebb376}.O{fill:#ffc3bd}]]></style><path d="M538.08 411.68h-39.611v.299h39.611v-.299zm-141.941 3.254h-10.393v.299h10.393v-.299zm101.134-14.352h-22.951v.299h22.951v-.299zm-382.876 2.009H62.742v.299h51.655v-.299zm18.228 0h-7.571v.299h7.571v-.299zm136.655 5.047H157.238v.299H269.28v-.299zm15.846-68.543H54.179a6.83 6.83 0 0 1-6.829-6.829V7.636a6.83 6.83 0 0 1 6.829-6.77h230.947c.897 0 1.785.177 2.614.52a6.83 6.83 0 0 1 2.215 1.48 6.84 6.84 0 0 1 1.481 2.216 6.83 6.83 0 0 1 .519 2.613v324.57c0 .897-.176 1.785-.519 2.613a6.84 6.84 0 0 1-1.481 2.216 6.83 6.83 0 0 1-2.215 1.48 6.82 6.82 0 0 1-2.614.52zM54.179 1.106a6.54 6.54 0 0 0-6.53 6.53v324.63a6.54 6.54 0 0 0 6.53 6.53h230.947a6.54 6.54 0 0 0 6.53-6.53V7.636a6.54 6.54 0 0 0-6.53-6.53H54.179zm489.642 337.989H312.874a6.83 6.83 0 0 1-6.829-6.829V7.636c.015-1.801.742-3.523 2.021-4.79a6.83 6.83 0 0 1 4.808-1.979h230.947c1.812 0 3.549.719 4.829 2a6.83 6.83 0 0 1 2.001 4.829v324.57a6.83 6.83 0 0 1-2.001 4.829c-1.28 1.281-3.017 2-4.829 2zM312.874 1.106a6.54 6.54 0 0 0-6.53 6.53v324.63a6.54 6.54 0 0 0 6.53 6.53h230.947a6.54 6.54 0 0 0 4.614-1.916c1.224-1.224 1.913-2.883 1.917-4.614V7.636c-.004-1.731-.693-3.39-1.917-4.614a6.54 6.54 0 0 0-4.614-1.916H312.874zM598 392.437H0v.299h598v-.299z" fill="#ebebeb"></path><path d="M478.4 242.614l-18.275-5.645a1.2 1.2 0 0 1-.627-.525c-.141-.244-.192-.529-.143-.806s.193-.528.408-.709a1.2 1.2 0 0 1 .769-.28l21.073 1.112c-4.975-8.647-7.917-14.053-11.266-20.822-.112-.256-.13-.544-.052-.812a1.2 1.2 0 0 1 1.268-.855c.278.028.537.152.733.351l14.292 15.632c1.436-8.372 3.11-16.086 5.191-23.824a1.19 1.19 0 0 1 .521-.654c.246-.148.538-.202.821-.153a1.2 1.2 0 0 1 .721.422c.182.223.278.504.269.791-.559 6.235-.762 12.496-.61 18.753l.574.204c5.055-5.773 10.362-11.318 15.919-16.637.224-.175.503-.265.786-.253a1.19 1.19 0 0 1 1.139 1.052c.034.282-.034.567-.191.804-5.374 6.815-10.338 13.944-14.866 21.349l21.791-7.93c.276-.079.57-.056.83.064s.469.329.588.59.14.556.06.831a1.2 1.2 0 0 1-.497.668l-22.533 13.228 19.268 6.135c.266.097.49.285.63.531a1.19 1.19 0 0 1-.282 1.521 1.19 1.19 0 0 1-.779.268l-19.794-1.196 9.796 11.279c.178.218.274.492.27.774s-.107.553-.291.766-.439.355-.717.399a1.2 1.2 0 0 1-.805-.157l-12.582-8.372c.526 4.066.969 7.176 1.507 10.309.03.282-.041.565-.2.799s-.395.404-.668.48-.563.053-.82-.065-.465-.324-.585-.58c-1.327-3.385-2.535-6.745-4.066-11.218-5.753 27.508-4.27 54.214 1.304 81.579l-6.901-1.196a214.06 214.06 0 0 1 3.229-80.754c-3.456 3.588-5.98 6.255-8.372 8.958-.203.199-.47.319-.753.339a1.2 1.2 0 0 1-.793-.23 1.19 1.19 0 0 1-.455-.689c-.065-.276-.03-.567.099-.819 1.627-2.703 3.385-5.442 5.753-8.994l-15.022 3.337a1.2 1.2 0 0 1-.812-.143c-.245-.142-.432-.367-.527-.634s-.092-.56.009-.825a1.2 1.2 0 0 1 .541-.623c4.294-2.236 8.276-4.15 14.125-6.925z" fill="#dce2ff"></path><path d="M468.677 252.122l14.041-7.439c.351-.178.624-.48.766-.848s.142-.774 0-1.142a1.59 1.59 0 0 0-.766-.848c-.352-.178-.756-.22-1.136-.116l-17.33 4.318c2.822-8.133 4.616-13.611 6.35-19.639.107-.371.075-.769-.089-1.118a1.59 1.59 0 0 0-.806-.782c-.355-.153-.753-.173-1.121-.054a1.59 1.59 0 0 0-.878.698c-2.846 4.784-5.561 9.09-9.568 15.441-2.464-6.506-4.856-12.558-7.631-18.466-.171-.353-.466-.63-.829-.778a1.59 1.59 0 0 0-1.137-.025c-.369.131-.676.395-.863.74a1.59 1.59 0 0 0-.149 1.127c1.196 4.688 2.189 9.413 2.955 14.041l-.527.311a275.35 275.35 0 0 0-13.945-10.178 1.59 1.59 0 0 0-2.146.313c-.252.314-.375.712-.346 1.113a1.59 1.59 0 0 0 .507 1.05 218.44 218.44 0 0 1 14.352 14.424l-18.479-3.038c-.39-.055-.786.038-1.112.259a1.59 1.59 0 0 0-.651.937c-.094.383-.043.787.144 1.133s.495.612.866.744l20.332 7.332-14.938 8.085c-.367.174-.652.482-.799.861a1.59 1.59 0 0 0 .009 1.174c.153.376.444.679.813.848s.789.19 1.173.059l16.086-4.078-5.98 10.261c-.204.333-.279.729-.21 1.114a1.59 1.59 0 0 0 .585.97c.307.241.692.36 1.082.336a1.59 1.59 0 0 0 1.031-.47l8.575-8.444.335 6.482c.016.393.177.766.451 1.047s.644.451 1.036.477a1.59 1.59 0 0 0 1.67-1.32l1.196-7.858c10.764 25.965 14.352 52.456 13.946 80.383l6.542-2.511a214.01 214.01 0 0 0-18.251-78.733l6.47 4.628c.318.279.733.421 1.154.394s.816-.22 1.095-.537.421-.732.394-1.154-.221-.816-.538-1.095l-4.353-4.509 11.96.359a1.59 1.59 0 0 0 .466-3.121l-11.804-3.158zm24.793 15.094l-10.477-5.562c-.241-.13-.425-.343-.52-.599s-.093-.539.005-.794a1.13 1.13 0 0 1 1.316-.688l12.905 3.217c-2.105-6.051-3.409-10.07-4.701-14.567a1.13 1.13 0 0 1 .067-.788c.117-.245.319-.441.569-.549s.53-.122.79-.039.479.258.62.491l7.104 11.47a191.22 191.22 0 0 1 5.717-13.742 1.13 1.13 0 0 1 1.391-.57c.261.094.479.281.61.525a1.13 1.13 0 0 1 .104.798c-.921 3.588-1.675 7.176-2.249 10.657l.335.191a197.15 197.15 0 0 1 10.597-7.714 1.13 1.13 0 0 1 .829-.232c.296.036.565.188.749.423s.268.533.232.829-.188.566-.423.75a155.7 155.7 0 0 0-10.764 10.764l13.826-2.285c.28-.047.567.013.804.169s.407.395.475.67.03.566-.108.815a1.12 1.12 0 0 1-.633.523l-15.201 5.478 11.123 5.98c.244.129.433.343.529.602a1.13 1.13 0 0 1-.545 1.395c-.247.125-.531.155-.798.084l-11.96-3.038 4.461 7.702a1.12 1.12 0 0 1 .144.785c-.05.27-.197.513-.413.682s-.487.254-.762.237a1.13 1.13 0 0 1-.727-.328l-6.434-6.327-.263 5.047c-.005.282-.116.553-.311.757s-.459.328-.741.346a1.13 1.13 0 0 1-1.185-.96l-.933-6.051c-7.869 18.932-10.429 38.272-10.166 58.604l-4.784-1.83c.751-19.807 5.264-39.289 13.3-57.408l-4.999 3.588c-.225.178-.51.264-.795.239a1.12 1.12 0 0 1-.743-.371c-.191-.214-.293-.493-.285-.78s.125-.559.328-.763l3.42-3.588-9.03.264c-.278.014-.553-.075-.769-.252s-.36-.427-.401-.703a1.12 1.12 0 0 1 .835-1.258l8.935-2.296z" fill="#eaedff"></path><path d="M463.94 392.233h35.665c1.202.003 2.359-.454 3.235-1.277a4.71 4.71 0 0 0 1.477-3.148l3.78-61.522c.167-2.715-52.816-2.715-52.624 0l3.791 61.522a4.71 4.71 0 0 0 1.465 3.136c.868.822 2.016 1.283 3.211 1.289z" fill="#e0e0e0"></path><path d="M461.775 250.089a3.6 3.6 0 0 1-1.047-1.433c-.224-.558-.304-1.164-.232-1.76l.801-6.818-1.83 3.17c-.253.445-.599.831-1.013 1.131a3.59 3.59 0 0 1-1.391.611 3.6 3.6 0 0 1-1.519-.019c-.499-.115-.968-.336-1.375-.647l-3.588-2.703 3.265 5.275a3.59 3.59 0 0 1 .506 2.454c-.132.852-.566 1.628-1.224 2.186l-4.222 3.588 4.139-.945a3.59 3.59 0 0 1 2.584.37c.784.443 1.373 1.165 1.649 2.022l1.424 4.354.909-4.629a3.6 3.6 0 0 1 .577-1.374c.287-.412.657-.76 1.087-1.021a3.6 3.6 0 0 1 2.892-.368l2.787.814-5.179-4.258zm23.801-11.745c.34-.278.604-.638.767-1.046a2.59 2.59 0 0 0 .166-1.286l-.586-4.987 1.339 2.32c.186.325.439.606.743.826s.649.371 1.016.446a2.63 2.63 0 0 0 1.11-.013c.365-.083.708-.243 1.006-.47l2.608-1.973-2.392 3.851a2.63 2.63 0 0 0-.363 1.79c.096.62.412 1.186.889 1.595l3.086 2.655-3.026-.694a2.63 2.63 0 0 0-3.086 1.746l-1.04 3.182-.67-3.385a2.64 2.64 0 0 0-.427-.998c-.21-.3-.48-.552-.792-.742a2.65 2.65 0 0 0-1.024-.362 2.62 2.62 0 0 0-1.082.081l-2.033.598 3.791-3.134zm14.089 28.549c.241-.205.429-.465.546-.76a1.93 1.93 0 0 0 .124-.927l-.419-3.588.957 1.663c.134.232.315.432.533.588a1.87 1.87 0 0 0 .728.318c.262.053.533.05.794-.009a1.91 1.91 0 0 0 .72-.335l1.877-1.423-1.71 2.763c-.228.379-.316.826-.248 1.263s.287.836.619 1.129l2.212 1.901-2.164-.502a1.88 1.88 0 0 0-2.213 1.196l-.753 2.284-.479-2.392c-.051-.258-.155-.503-.306-.719s-.345-.397-.57-.533a1.9 1.9 0 0 0-1.516-.195l-1.459.431 2.727-2.153z" class="B"></path><path d="M485.564 108.793h-31.299a1.58 1.58 0 0 0-1.579 1.579v6.088a1.58 1.58 0 0 0 1.579 1.579h31.299a1.58 1.58 0 0 0 1.579-1.579v-6.088a1.58 1.58 0 0 0-1.579-1.579z" fill="#70cbff"></path><path d="M172.248 173.294h-33.393a1.58 1.58 0 0 0-1.578 1.578v6.65a1.58 1.58 0 0 0 1.578 1.579h33.393a1.58 1.58 0 0 0 1.578-1.579v-6.65a1.58 1.58 0 0 0-1.578-1.578z" fill="#d9dfff"></path><path d="M466.536 172.995h34.576a1.58 1.58 0 0 0 1.579-1.579v-6.973a1.58 1.58 0 0 0-1.579-1.578h-34.576a1.58 1.58 0 0 0-1.579 1.578v6.973a1.58 1.58 0 0 0 1.579 1.579z" fill="#fafbff"></path><path d="M427.031 172.995h34.577a1.58 1.58 0 0 0 1.579-1.579v-6.973a1.58 1.58 0 0 0-1.579-1.578h-34.577a1.58 1.58 0 0 0-1.578 1.578v6.973a1.58 1.58 0 0 0 1.578 1.579z" fill="#70cbff"></path><path d="M75.982 122.272h36.55a1.58 1.58 0 0 0 1.579-1.578v-7.499a1.58 1.58 0 0 0-1.579-1.579h-36.55a1.58 1.58 0 0 0-1.579 1.579v7.499a1.58 1.58 0 0 0 1.579 1.578z" fill="#d9dfff"></path><path d="M174.616 8.904h-1.615v47.864h1.615V8.904z" fill="#e6e6e6"></path><path d="M122.662 83.354l51.141-30.905 51.153 30.905H122.662z" fill="#e8eaff"></path><path d="M177.343 83.354l-3.541-30.905 23 30.905h-19.459z" fill="#f5f5f5"></path><path d="M424.999 8.904h-1.615v47.864h1.615V8.904z" fill="#e6e6e6"></path><path d="M373.056 83.354l51.141-30.905 51.141 30.905H373.056z" fill="#e8eaff"></path><path d="M427.726 83.354l-3.528-30.905 22.987 30.905h-19.459zm-134.491 358.49c128.071 0 231.893-6.062 231.893-13.539s-103.822-13.539-231.893-13.539-231.892 6.062-231.892 13.539 103.822 13.539 231.892 13.539z" fill="#f5f5f5"></path><g class="C"><use xlink:href="#B"></use><path d="M376.884 108.208h-5.98v-5.98c0-.793.315-1.554.875-2.115s1.322-.875 2.115-.875a2.98 2.98 0 0 1 1.146.224c.363.15.693.37.971.648a2.97 2.97 0 0 1 .648.971c.15.364.226.753.225 1.147v5.98z"></path></g><g class="B G"><use xlink:href="#B"></use><path d="M376.883 108.208h-5.98v-5.98a2.99 2.99 0 0 1 2.99-2.99c.393-.002.783.075 1.146.224a2.97 2.97 0 0 1 .972.648c.278.278.498.608.648.971s.226.753.224 1.147v5.98z"></path></g><use xlink:href="#C" class="E"></use><use xlink:href="#C" opacity=".8" class="B"></use><use xlink:href="#D" class="E"></use><g class="M B"><use xlink:href="#D"></use></g><g class="C"><use xlink:href="#E"></use><use xlink:href="#F"></use><use xlink:href="#G"></use><use xlink:href="#H"></use><use xlink:href="#I"></use><use xlink:href="#J"></use><use xlink:href="#K"></use><use xlink:href="#L"></use><use xlink:href="#M"></use><use xlink:href="#N"></use><use xlink:href="#O"></use><use xlink:href="#P"></use><use xlink:href="#Q"></use><use xlink:href="#R"></use><use xlink:href="#S"></use><use xlink:href="#T"></use><use xlink:href="#U"></use><use xlink:href="#V"></use><use xlink:href="#W"></use><use xlink:href="#X"></use><use xlink:href="#Y"></use><path d="M269.231 171.177l-1.459 4.15.742-.191-3.038-3.588c-.371-.443-1.005.203-.634.634l3.038 3.588c.057.054.126.093.202.113s.157.019.232-.001.146-.061.202-.116.096-.124.117-.2l1.472-4.15c.191-.55-.682-.777-.874-.239z"></path><use xlink:href="#Z"></use><use xlink:href="#a"></use><use xlink:href="#b"></use><use xlink:href="#c"></use><use xlink:href="#d"></use><use xlink:href="#e"></use></g><g class="D B"><use xlink:href="#E"></use></g><g class="D B"><use xlink:href="#F"></use></g><g class="D B"><use xlink:href="#G"></use></g><g class="D B"><use xlink:href="#H"></use></g><g class="D B"><use xlink:href="#I"></use></g><g class="D B"><use xlink:href="#J"></use></g><g class="D B"><use xlink:href="#K"></use></g><g class="D B"><use xlink:href="#L"></use></g><g class="D B"><use xlink:href="#M"></use></g><g class="D B"><use xlink:href="#N"></use></g><g class="D B"><use xlink:href="#O"></use></g><g class="D B"><use xlink:href="#P"></use></g><g class="D B"><use xlink:href="#Q"></use></g><g class="D B"><use xlink:href="#R"></use></g><g class="D B"><use xlink:href="#S"></use></g><g class="D B"><use xlink:href="#T"></use></g><g class="D B"><use xlink:href="#U"></use></g><g class="D B"><use xlink:href="#V"></use></g><g class="D B"><use xlink:href="#W"></use></g><g class="D B"><use xlink:href="#X"></use></g><g class="D B"><use xlink:href="#Y"></use></g><g class="D B"><path d="M269.231 171.177l-1.459 4.15.742-.191-3.038-3.588c-.371-.443-1.005.203-.634.634l3.038 3.588c.057.054.126.094.202.113s.157.019.232-.001.146-.06.202-.116.096-.124.117-.2l1.472-4.15c.191-.55-.682-.777-.874-.239z"></path></g><g class="D B"><use xlink:href="#Z"></use></g><g class="D B"><use xlink:href="#a"></use></g><g class="D B"><use xlink:href="#b"></use></g><g class="D B"><use xlink:href="#c"></use></g><g class="D B"><use xlink:href="#d"></use></g><g class="D B"><use xlink:href="#e"></use></g><use xlink:href="#f" class="E"></use><use xlink:href="#f" class="B G"></use><use xlink:href="#g" class="E"></use><use xlink:href="#g" class="B G"></use><g class="F"><path d="M445.797 353.495s16.948-2.153 18.443 3.827-27.951 2.691-33.859 8.671 19.208 9.054 13.742 12.63c-4.294 2.811-18.969-9.939-37.698-5.155s-21.408-9.34-19.315-22.46 3.588-27.221 9.269-26.145 24.099 26.886 49.418 28.632zm-52.707 21.421s-17.534-3.086-18.502 4.257-2.297-3.528 18.502-4.257zm-28.31 31c-4.927-5.777-7.606-14.735-8.085-26.731 2.249 22.844 15.548 37.65 68.471 40.03s64.74-13.455 70.421-11.553c2.392.789 2.392 2.978 1.602 5.238-8.085 8.372-25.737 10.764-55.733 10.764-37.076.036-68.184-3.695-76.676-17.748z" class="H"></path></g><path d="M455.927 308.167a8.08 8.08 0 0 0-3.934 1.877c-1.471 1.483-5.765 1.328-5.765 1.328l-.431 4.868 9.808-.575.322-7.498z" fill="#b25b52"></path><path d="M416.375 279.08c1.28-.072 6.184 2.488 9.138 15.428s2.296 17.271 25.235 15.8l-.741 6.446s-19.878 2.129-25.81-2.631-12.558-34.768-7.822-35.043z" class="C"></path><path d="M422.978 294.999l1.124 1.973s-1.196 12.187 1.112 17.808a7.05 7.05 0 0 1-1.016-.657c-1.591-1.28-3.23-4.402-4.689-8.265l3.469-10.859z" class="F K"></path><path d="M390.231 255.315s-.168 3.78-1.914 4.545 1.28 5.095.431 7.738-2.799 5.023-.706 8.564c0 0-.454-2.954 1.041-4.713 0 0-.622 4.952.98 5.059s1.914-1.339 4.545-.717.311-4.043.311-4.043c.924.833 1.546 1.947 1.77 3.17.706 2.476 7.667-.383 10.501.634s3.588-4.21 3.588-4.21 1.268 3.109.239 4.162a3.84 3.84 0 0 0 1.797-1.409c.442-.64.679-1.401.679-2.179.476.865.592 1.884.323 2.834 0 0 2.153-.155 1.615-4.317s-3.78-5.358-4.629-8.659-11.218-9.748-11.218-9.748l-9.353 3.289z" class="C"></path><path d="M395.876 268.029l8.874 5.777c0 6.231 4.461 5.896 4.461 5.896s.072 2.177-5.346 2.978c-2.404.451-4.85.647-7.295.586 2.655-3.241.61-11.003-.694-15.237z" class="L"></path><path d="M405.313 277.142c-.446-1.066-.654-2.217-.61-3.372l-7.918-5.155-.49.885s2.99 8.037 9.018 7.642z" class="F H"></path><path d="M393.269 258.533c.897 7.236 1.124 10.321 5.023 13.814 5.86 5.262 14.543 2.583 15.835-4.784 1.196-6.626-.514-17.342-7.798-19.782-1.605-.553-3.326-.684-4.997-.382s-3.236 1.028-4.546 2.108a9.93 9.93 0 0 0-2.937 4.06 9.92 9.92 0 0 0-.58 4.978v-.012z" class="L"></path><path d="M409.26 262.79a15.67 15.67 0 0 0 2.392 3.588 2.52 2.52 0 0 1-.981.503 2.51 2.51 0 0 1-1.101.035l-.31-4.126z" fill="#5b613f"></path><g fill="#2e353a"><path d="M402.885 259.023c-.043.012-.089.012-.132 0-.028-.026-.051-.057-.066-.092s-.024-.073-.024-.111.008-.076.024-.111.038-.067.066-.092c.33-.432.758-.778 1.249-1.009a3.39 3.39 0 0 1 1.574-.319c.074.009.141.047.188.105s.07.132.063.206c-.003.038-.014.074-.031.108s-.041.064-.07.088-.062.043-.098.055-.074.015-.112.012c-.449-.011-.893.085-1.297.28a2.82 2.82 0 0 0-1.023.844c-.042.039-.094.063-.15.07a.26.26 0 0 1-.161-.034zm10.728-1.148c-.05-.002-.097-.024-.132-.06a2.86 2.86 0 0 0-1.202-.551 2.85 2.85 0 0 0-1.321.049.3.3 0 0 1-.111.018c-.038-.001-.075-.009-.109-.025a.3.3 0 0 1-.092-.065.28.28 0 0 1-.059-.096c-.013-.036-.019-.074-.017-.113s.012-.075.028-.11.04-.065.069-.091a.28.28 0 0 1 .099-.056c.52-.154 1.07-.181 1.602-.079a3.4 3.4 0 0 1 1.46.665c.052.038.089.092.106.154s.013.128-.012.187a.29.29 0 0 1-.125.14c-.056.031-.121.043-.184.033zm-8.588 4.21c0 .586.383 1.04.766 1.016s.67-.514.634-1.112-.383-1.04-.766-1.016-.669.514-.634 1.112zm6.686-.419c0 .586.383 1.041.766 1.029s.669-.526.633-1.124-.382-1.041-.765-1.017-.682.514-.634 1.112z"></path><path d="M412.178 260.59l1.387-.491s-.658 1.149-1.387.491zm-6.734.418l1.387-.49s-.61 1.148-1.387.49z"></path></g><g class="C"><path d="M405.755 268.005a3.87 3.87 0 0 1-.419-.574c-.013-.012-.023-.027-.03-.044s-.011-.034-.011-.052.004-.035.011-.052.017-.031.03-.043.028-.024.044-.031.034-.011.052-.011.036.004.052.011.032.017.044.031a3.89 3.89 0 0 0 1.249 1.265c.508.319 1.083.517 1.681.576.037.003.072.019.098.045a.16.16 0 0 1 .046.099c-.003.039-.021.076-.05.102a.15.15 0 0 1-.106.041c-1.042-.08-2.01-.57-2.691-1.363zm.706-19.722s3.887 4.306-.347 5.98-8.049 4.27-8.671 7.846c-.155.988-.644 1.893-1.387 2.564a4.36 4.36 0 0 1-2.691 1.12s-5.598-7.105-1.986-14.556 13.611-5.561 15.082-2.954z"></path><path d="M395.23 249.395s4.677-7.236 12.511-3.731 8.18 9.448 6.219 8.862-5.107-1.196-7.356-5.226-11.374.095-11.374.095zm1.149 13.635s3.863-.228 2.021 4.855a8.8 8.8 0 0 0-2.021-4.855z"></path></g><path d="M391.905 264.393c.491 1.319 1.485 2.39 2.763 2.978 1.698.777 2.835-.682 2.595-2.392-.215-1.567-1.351-3.875-3.181-3.911a2.39 2.39 0 0 0-2.392 2.392 2.28 2.28 0 0 0 .215.933z" class="L"></path><use xlink:href="#h" class="C"></use><use xlink:href="#h" class="B G"></use><use xlink:href="#i" class="C"></use><use xlink:href="#i" class="B I"></use><use xlink:href="#j" class="C I"></use><g class="B"><use xlink:href="#j" class="D"></use><path d="M446.61 310.331c-.346.969-1.196 1.687-1.806 1.603s-.873-.957-.526-1.926 1.196-1.698 1.806-1.614.885.957.526 1.937z"></path></g><path d="M467.529 403.213l3.922 16.086 5.634-1.997-1.663-16.338-7.893 2.249z" class="L"></path><path d="M477.539 416.393l-6.817.131c-.144 0-.284.051-.395.142s-.187.219-.215.361l-1.28 6.398c-.043.266.018.538.169.76s.382.379.644.436h.228l8.85-.37c4.15-.072 3.098.442 7.977.418 2.943 0 3.421-3.361 2.177-3.504-5.729-.61-7.367-2.308-9.568-4.306a2.55 2.55 0 0 0-1.77-.466z" class="C"></path><path d="M476.391 410.437l-.969-9.473-7.893 2.249 2.272 9.305 6.59-2.081z" fill="#b4b5b1" class="H"></path><use xlink:href="#k" class="E"></use><g class="F"><use xlink:href="#k" class="D"></use><path d="M418.134 323.248c2.547 14.101 7.116 11.578 7.116 11.578l-1.997 2.942-5.43.693-3.923-7.367-1.005-5.836 5.239-2.01z" class="J"></path></g><path d="M497.56 373.959l12.606 15.045 4.437-3.337-11.075-16.732-5.968 5.024z" class="L"></path><path d="M512.355 381.469l-5.406 4.21c-.118.084-.204.206-.243.345a.64.64 0 0 0 .027.421l2.572 5.98a1.04 1.04 0 0 0 .226.338c.097.097.212.174.339.226a1.05 1.05 0 0 0 .399.079 1.05 1.05 0 0 0 .399-.081l.203-.108 7.069-5.334c3.373-2.392 2.81-1.399 6.817-4.186 2.392-1.686.897-4.712-.215-4.126-5.047 2.751-7.487 2.057-10.465 1.686a2.55 2.55 0 0 0-1.722.55z" class="C"></path><path d="M504.437 382.163l5.334-3.803-6.243-9.425-5.968 5.024 6.877 8.204z" fill="#b4b5b1" class="H"></path><use xlink:href="#l" class="E"></use><use xlink:href="#l" class="D F"></use><g class="E"><path d="M498.278 379.006l2.894 2.559 8.252-6.853-1.411-3.684-9.735 7.978z"></path><use xlink:href="#m"></use></g><g class="F"><use xlink:href="#m" class="M"></use><path d="M470.507 341.188c-.598-1.261-1.518-2.342-2.667-3.133 3.193 1.686 7.678 5.752 8.204 15.44l-3.588-3.337a37.04 37.04 0 0 0-1.949-8.97zm-14.508-3.696a18.95 18.95 0 0 1 3.863-.885 82.63 82.63 0 0 1-14.675 19.471l-17.198 6.626c7.511-5.143 16.708-13.252 28.01-25.212z" class="J"></path></g><path d="M466.153 405.928l1.136 3.635 10.394-3.085.131-3.935-11.661 3.385z" class="E"></path><path d="M424.652 324.301s-2.679 4.341-30.988 8.647c0 0 1.255-8.743-1.735-21.253s-13.993-24.279-3.229-27.317 29.422-9.293 31.024-2.523 4.521 9.723 4.402 15.117-4.079 9.317.526 27.329z" class="C"></path><path d="M459.408 310.379a2.3 2.3 0 0 0-.191-1.686c-.419-.825-1.196-1.89-2.237-1.782-1.722.167-2.177 1.399-2.607 2.99s-1.794 4.425-.239 5.406 3.755.43 5.274-4.928z" class="L"></path><path d="M394.943 282.62s15.058.861 14.173-3.42c0 0-2.93-1.352-2.392-2.943s-7.176.06-10.214-.37c-1.196-.18-.454 1.435-.538 3.157-.123 1.245-.471 2.457-1.029 3.576z" class="C"></path><g class="F"><path d="M392.563 314.637l11.016-.143 3.743-2.548 4.234-1.878.562 1.495s-13.156 15.297-18.239 13.958a71.13 71.13 0 0 0-1.316-10.884z" class="K"></path><path d="M401.856 311.492s-4.222 1.279-4.939-1.794c-1.041-4.414-4.127-16.744-7.26-21.457-3.349-5.118 3.349 19.519 3.349 19.519l1.495 5.191 2.392 3.193 5.095-3.588-.132-1.064zm7.738-30.355s.527 2.883-10.764 2.619c-.024 0 13.168 3.158 10.764-2.619z" class="K"></path></g><path d="M420.155 305.188l-.155-1.219-.862.514 1.017.705z" class="C"></path><path d="M420.155 305.188l-.155-1.219-.862.514 1.017.705z" class="B I"></path><use xlink:href="#n" class="C"></use><g class="B"><use xlink:href="#n" class="K"></use><path d="M410.932 289.794l-.903.541 8.006 13.357.903-.542-8.006-13.356z" class="G"></path></g><path d="M386.069 285.108c-3.839 1.088-4.09 6.291-.586 19.076s6.076 20.93 12.845 17.856 14.603-11.302 14.603-11.302l-3.397-5.526s-11.039 9.497-13.347 7.679-4.222-29.434-10.118-27.783z" class="C"></path><path d="M408.087 307.389l4.665-3.923s-.682-7.845 1.854-7.941c2.081-.084 3.743 2.392 4.114 5.813s-3.469 5.525-3.469 5.525l-4.508 4.963-2.656-4.437z" class="L"></path><path d="M312.467 231.958s10.488-6.459 15.954 2.81c3.875 6.578 1.734 13.156 4.784 18.562 4.784 8.372 1.603 12.331-5.573 13.826s-18.694 1.291-17.103-7.081c1.627-8.563-6.363-28.237 1.938-28.117z" class="C"></path><path d="M323.924 250.639s.873 12.283 3.17 12.498a12.87 12.87 0 0 1-10.764 0l-.371-5.657 7.965-6.841z" class="N"></path><use xlink:href="#o" class="E"></use><use xlink:href="#o" class="B I"></use><g class="M E"><use xlink:href="#o" x="34.636"></use></g><use xlink:href="#p" class="E"></use><g class="M B"><use xlink:href="#p"></use></g><path d="M342.809 358.71h-69.296v6.135h69.296v-6.135z" class="E"></path><path d="M342.809 358.71h-69.296v6.135h69.296v-6.135z" class="B G"></path><use xlink:href="#p" x="-34.636" class="E"></use><use xlink:href="#p" x="-34.636" class="B I"></use><use xlink:href="#q" class="C"></use><use xlink:href="#q" class="B K"></use><use xlink:href="#r" class="C"></use><use xlink:href="#r" class="B G"></use><use xlink:href="#s" class="C"></use><use xlink:href="#s" class="B G"></use><use xlink:href="#t" class="C"></use><use xlink:href="#t" class="B K"></use><path d="M302.121 279.534s1.005 10.92-4.15 15.548c-4.688 4.21-12.259 6.279-12.259 6.279l-6.674-1.949a1.63 1.63 0 0 0-.938 0 1.64 1.64 0 0 0-.784.514l-2.978 3.588a1.71 1.71 0 0 0 .335 2.392c.179.141.385.245.604.307a1.75 1.75 0 0 0 .676.052l3.456-.419c1.389.273 2.796.445 4.21.514 1.069-.217 2.12-.513 3.146-.885 0 0 11.9-1.028 16.971-6.099s6.351-15.608 6.351-15.608l-7.966-4.234zm-35.055 116.263l.778 23.873h5.346l2.5-24.303-8.624.43z" class="N"></path><g class="C"><path d="M267.76 417.218h6.088a.55.55 0 0 1 .55.443l1.268 5.728c.053.245.008.5-.127.711a.95.95 0 0 1-.591.414h-.191c-2.536 0-4.784-.192-7.954-.192-3.731 0-2.786.431-7.176.491-2.643 0-3.121-2.978-1.997-3.122 5.131-.634 6.602-2.189 8.587-4.019a2.25 2.25 0 0 1 1.543-.454z"></path><path d="M273.728 414.431l.598-5.848h-6.841l.191 5.848h6.052z" class="H"></path><use xlink:href="#u"></use></g><use xlink:href="#u" class="F J"></use><path d="M265.739 407.937l.622 4.198h9.173l.849-4.198h-10.644z" class="C"></path><path d="M265.739 407.937l.622 4.198h9.173l.849-4.198h-10.644z" class="B J"></path><path d="M283.117 395.809l.897 23.55 5.107-.012 3.671-23.968-9.675.43z" class="N"></path><g class="C"><path d="M289.874 414.431l.897-5.848h-7.176l.227 5.848h6.052z" class="H"></path><path d="M284.122 417.218h6.099a.56.56 0 0 1 .55.442l1.196 5.729a.91.91 0 0 1 .012.367c-.02.122-.064.238-.13.343s-.151.195-.252.266-.215.122-.335.148h-.204c-2.535 0-4.784-.191-7.941-.191-3.732 0-2.787.431-7.176.49-2.631 0-3.11-2.978-1.997-3.121 5.13-.634 6.613-2.189 8.599-4.019a2.21 2.21 0 0 1 1.579-.454zm53.903-110.474s1.196 0 2.99 8.934c2.284 11.35 5.597 28.237-5.298 28.237h-35.318s-1.722 4.102-9.233 65.35h-7.714s-4.282-65.541 0-75.193c3.289-7.439 19.626-10.848 28.62-12.02a5.32 5.32 0 0 0 3.308-1.607c.876-.911 1.4-2.106 1.476-3.368.072-2.703-.323-10.764-.323-10.764l21.492.431z"></path><path d="M281.909 407.937l.885 4.198h8.898l.849-4.198h-10.632z"></path></g><path d="M281.909 407.937l.885 4.198h8.898l.849-4.198h-10.632z" class="B J"></path><use xlink:href="#v" class="E"></use><use xlink:href="#v" class="F H"></use><path d="M310.529 311.492a146.89 146.89 0 0 0-1.65-16.063c-1.615-10.285-4.39-21.851-3.445-29.17.114-.944.577-1.81 1.299-2.428a3.79 3.79 0 0 1 2.6-.909h27.939c.43.009.853.105 1.245.282a3.17 3.17 0 0 1 1.033.751c.29.318.512.691.653 1.098s.197.837.166 1.266c-.956 7.846-3.384 27.364.311 45.795-.012 0-21.348 1.698-30.151-.622z" class="E"></path><path d="M334.76 276.903s1.854 12.702-3.743 16.278-17.845 7.283-17.845 7.283l-7.57-1.602a.94.94 0 0 0-.569.05c-.18.075-.332.203-.436.368l-3.038 4.904c-.111.185-.161.4-.141.615s.106.419.249.581c.11.131.25.233.409.298s.33.089.5.073l4.581-.467a21.67 21.67 0 0 0 3.181.526c1.334-.201 2.65-.509 3.935-.92 0 0 17.497-1.711 22.843-7.045s5.98-16.433 5.98-16.433l-8.336-4.509z" class="N"></path><use xlink:href="#w" class="E"></use><use xlink:href="#w" class="F H"></use><use xlink:href="#x" class="E"></use><g class="F"><use xlink:href="#x" class="H"></use><path d="M324.115 252.409l-.155-1.77-7.918 6.841.192 2.99c2.248-.179 5.597-1.65 7.881-8.061z" class="H"></path></g><path d="M324.57 240.772c.634 6.997 1.053 9.951-1.901 14.041-4.437 6.159-13.156 5.418-15.883-1.196-2.392-5.98-3.086-16.421 3.265-20.224 1.397-.852 2.989-1.331 4.623-1.392a9.57 9.57 0 0 1 8.319 4.255c.907 1.362 1.45 2.933 1.577 4.564v-.048z" class="N"></path><path d="M309.836 247.386a15.55 15.55 0 0 1-1.364 3.959 2.45 2.45 0 0 0 2.069 0l-.705-3.959z" fill="#d58745"></path><g fill="#2e353a"><path d="M314.189 242.984c.043-.022.08-.055.107-.095.05-.052.078-.12.078-.192s-.028-.14-.078-.191c-.406-.328-.886-.553-1.398-.657s-1.041-.084-1.544.059c-.068.027-.124.079-.155.146s-.036.143-.012.213a.27.27 0 0 0 .139.154c.065.032.139.036.208.013a2.72 2.72 0 0 1 1.259-.023 2.7 2.7 0 0 1 1.133.55.32.32 0 0 0 .129.04c.045.004.091-.002.134-.017zm-9.712 1.472c-.047.01-.096.01-.143 0-.058-.043-.098-.107-.111-.178a.29.29 0 0 1 .039-.205 3.27 3.27 0 0 1 2.607-1.483c.065.013.123.049.165.1a.29.29 0 0 1 0 .362c-.042.051-.1.087-.165.1-.427.019-.843.137-1.217.345s-.694.499-.935.851c-.025.039-.061.07-.104.089s-.09.026-.136.019zm9.162 1.291c.095.562-.12 1.065-.491 1.136s-.741-.334-.837-.897.108-1.064.479-1.136.741.335.849.897zm-6.363 1.148c.108.55-.108 1.065-.478 1.125s-.742-.323-.85-.897.12-1.065.491-1.125.741.323.837.897z"></path><path d="M306.594 246.046l-1.411-.143s.885.873 1.411.143zm6.363-1.195l-1.423-.144s.885.933 1.423.144z"></path></g><path d="M327.046 246.046c-.092.667-.314 1.31-.655 1.891a5.1 5.1 0 0 1-1.33 1.494c-1.448 1.076-2.811-.06-2.943-1.758s.479-3.935 2.189-4.342a2.32 2.32 0 0 1 1.129.045 2.3 2.3 0 0 1 .972.575c.272.269.472.601.583.967s.13.753.055 1.128z" class="N"></path><g class="C"><path d="M312.479 254.215a3.68 3.68 0 0 1-.622.132c-.016.003-.032.003-.048 0s-.031-.009-.044-.018a.11.11 0 0 1-.034-.034c-.009-.013-.015-.028-.018-.044 0-.034.011-.068.033-.094s.053-.044.087-.05c.526-.069 1.029-.261 1.467-.56a3.38 3.38 0 0 0 1.056-1.162c.014-.031.038-.056.07-.069s.066-.015.098-.003c.019.024.03.054.03.084s-.011.06-.03.084a3.59 3.59 0 0 1-2.045 1.734zm2.559-18.358s-1.914 2.99-.442 5.083-8.588-2.285-11.171 2.296c0 0-3.289-14.149 11.613-12.259v4.88z"></path><path d="M314.548 234.96s-1.113 5.681 2.583 7.427 3.588 6.434 6.901 5.645c4.784-1.196 1.363-15.656-6.387-17.223-5.705-1.172-3.097 4.151-3.097 4.151z"></path></g><path d="M210.089 425.279h-4.126l-1.806-109.147h7.738l-1.806 109.147z" class="E"></path><path d="M210.089 425.279h-4.126l-1.806-109.147h7.738l-1.806 109.147z" class="B I"></path><path d="M255.609 425.279h-4.127l-1.805-109.147h7.738l-1.806 109.147z" class="E"></path><path d="M255.609 425.279h-4.127l-1.805-109.147h7.738l-1.806 109.147z" class="B M"></path><path d="M285.844 314.302H208.02v8.539h77.824v-8.539z" class="E"></path><path d="M285.844 314.302H208.02v8.539h77.824v-8.539z" class="B D"></path><path d="M331.483 314.302h-45.639v8.539h45.639v-8.539z" class="E"></path><path d="M331.483 314.302h-45.639v8.539h45.639v-8.539z" class="B G"></path><path d="M333.433 425.279h-4.127L327.5 316.132h7.739l-1.806 109.147z" class="E"></path><path d="M333.433 425.279h-4.127L327.5 316.132h7.739l-1.806 109.147z" class="B M"></path><use xlink:href="#y" class="C"></use><use xlink:href="#y" class="B K"></use><use xlink:href="#z" class="C"></use><use xlink:href="#z" class="B G"></use><path d="M287.913 425.279h-4.127l-1.806-109.147h7.739l-1.806 109.147z" class="E"></path><path d="M287.913 425.279h-4.127l-1.806-109.147h7.739l-1.806 109.147z" class="B I"></path><use xlink:href="#AA" class="E"></use><use xlink:href="#AA" class="F J"></use><path d="M282.148 306.707l-4.401-31.383c-.092-.573-.381-1.096-.818-1.478a2.49 2.49 0 0 0-1.574-.615h-4.222V308.8h9.221c.265.009.527-.043.769-.15s.457-.266.629-.467.297-.437.366-.693a1.77 1.77 0 0 0 .03-.783z" class="E"></path><use xlink:href="#AB" class="C"></use><g class="B"><use xlink:href="#AB" class="I"></use><path d="M259.137 290.155c.043.237.032.481-.031.714s-.178.448-.334.631-.353.329-.573.428a1.62 1.62 0 0 1-.7.14 2.27 2.27 0 0 1-2.189-1.913 1.63 1.63 0 0 1 .031-.715 1.62 1.62 0 0 1 .338-.632c.159-.182.356-.327.578-.423s.462-.141.703-.132a2.27 2.27 0 0 1 1.43.56c.397.347.661.821.747 1.342z" class="I"></path></g><path d="M146.714 299.711c-4.497 26.252 26.85 12.486 39.348 12.797a7.17 7.17 0 0 1 2.392.467l3.851 16.66-3.743 17.246-8.743 13.814h-54.466l-39.336-26.611-9.987-31.227 2.811-50.579 1.196-8.121s1.196 9.999 28.704 7.499 49.035-11.35 55.255-2.5c7.57 10.621-14.304 33.189-17.282 50.555z" class="E"></path><path d="M187.569 342.671v9.831l-15.692 6.327-30.904-1.638-8.133-10.31 3.444-5.382h19.902l31.383 1.172z" class="F J"></path><path d="M137.564 374.82h-9.448v43.008h9.448V374.82z" class="C"></path><path d="M137.564 374.82h-9.448v43.008h9.448V374.82z" class="B G"></path><use xlink:href="#AC" class="C"></use><use xlink:href="#AC" class="B D"></use><g class="E"><use xlink:href="#AD"></use><use xlink:href="#AD" x="-66.868"></use></g><path d="M137.564 374.82h-9.448v9.735h9.448v-9.735z" class="F J"></path><use xlink:href="#AE" class="E"></use><use xlink:href="#AE" class="F H"></use><path d="M136.548 260.638s7.176 20.332 13.156 20.762 13.156-10.429 13.156-10.429l2.954-7.678 5.98-.502v9.639l-6.112 3.062s-9.341 15.345-16.588 14.962-14.568-11.601-16.051-17.318c-.825-3.169-.287-9.687 3.505-12.498z" class="O"></path><path d="M173.049 277.358l2.141-17.725-8.204-.562-.251 17.856 6.314.431z" class="C"></path><path d="M173.049 277.358l2.141-17.725-8.204-.562-.251 17.856 6.314.431z" class="B G"></path><path d="M175.332 257.089l-8.198-.552-.172 2.554 8.198.552.172-2.554z" class="E"></path><path d="M167.18 256.013l7.284.51c.124.009.239.066.32.16a.46.46 0 0 1 .114.339l-.091 1.292-8.216-.575.09-1.28c.002-.062.018-.124.044-.18s.065-.107.111-.148.102-.074.161-.094.121-.028.183-.024z" class="C"></path><use xlink:href="#AF" class="E"></use><use xlink:href="#AF" class="B D"></use><path d="M133.139 277.609l1.471 2.165 10.884-5.621-1.017-2.273-11.338 5.729z" class="E"></path><path d="M133.139 277.609l1.471 2.165 10.884-5.621-1.017-2.273-11.338 5.729z" class="B H"></path><use xlink:href="#AG" class="E"></use><use xlink:href="#AG" class="B G"></use><path d="M114.266 256.093l7.176 6.183 4.138-3.672c-1.567-1.196-1.196-3.803-.263-6.649l-10.13-8.002c.49 3.756.825 8.911-.921 12.14zm52.014 79.905l13.168 5.358-1.483 5.573-14.065-2.894 2.38-8.037z" class="O"></path><use xlink:href="#AH" class="C"></use><g class="F"><use xlink:href="#AH" class="D"></use><path d="M168.17 319.002l-30.63 19.519 4.88 8.013s-2.954.981-7.045-8.814l18.933-12.51s-5.98-.598-5.777-1.519c.252-1.519 13.264-4.425 19.196-5.669a.55.55 0 0 1 .618.311.55.55 0 0 1-.175.669z" class="I"></path><path d="M136.464 337.66l5.298 8.994a100.49 100.49 0 0 1-19.77 1.627c-2.187-.014-4.354-.419-6.398-1.196l-1.866-3.588 4.018-8.456 18.718 2.619z" class="I"></path></g><path d="M137.002 339.035l-5.956 5 2.739 4.245 9.065-1.423-5.848-7.822z" class="O"></path><path d="M144.441 347.013l-6.219-9.807-2.811 2.009 5.382 8.468 3.648-.67z" class="C"></path><path d="M144.441 347.013l-6.219-9.807-2.811 2.009 5.382 8.468 3.648-.67z" class="B D"></path><g class="C"><path d="M99.137 337.875c-3.385-5.716-9.927-23.058 5.8-26.048s67.419 26.06 67.419 26.06l-2.392 7.559-48.941-8.073s13.611 12.319-1.279 10.764c-11.817-1.208-17.306-4.676-20.607-10.262z"></path><path d="M171.088 335.998l-3.062 9.879 3.062.418 2.751-8.527-2.751-1.77z"></path></g><path d="M171.088 335.998l-3.062 9.879 3.062.418 2.751-8.527-2.751-1.77z" class="B D"></path><g class="C"><path d="M135.531 348.065l-2.141-6.542a.56.56 0 0 0-.586-.37l-5.693.562a.92.92 0 0 0-.347.101c-.108.056-.203.133-.281.227s-.136.201-.172.317a.91.91 0 0 0-.037.359 1.23 1.23 0 0 0 0 .192l2.595 7.319c1.196 3.457.431 2.715 1.71 6.805.778 2.464 3.708 1.998 3.505.909-.969-4.951.311-5.92 1.399-8.312.212-.498.229-1.057.048-1.567zm42.745-7.068l-2.213 6.709c-.038.124-.034.257.012.378a.59.59 0 0 0 .24.292l5.059 3.014a.94.94 0 0 0 .348.127c.124.019.25.014.371-.016a.93.93 0 0 0 .335-.159.92.92 0 0 0 .249-.275l.084-.179 2.332-7.643c1.196-3.588 1.292-2.511 2.739-6.661.861-2.512-1.854-3.911-2.392-2.895-2.225 4.689-3.863 4.701-6.243 5.98-.459.316-.786.788-.921 1.328z"></path><use xlink:href="#AI"></use></g><use xlink:href="#AI" class="B J"></use><use xlink:href="#AJ" class="C"></use><use xlink:href="#AJ" class="B G"></use><use xlink:href="#AK" class="C"></use><use xlink:href="#AK" class="B G"></use><use xlink:href="#AL" class="C"></use><g class="B"><use xlink:href="#AL" class="I"></use><path d="M167.44 305.177c-.203.909-.825 1.638-1.411 1.638s-.897-.729-.706-1.638.825-1.651 1.411-1.651.933.742.706 1.651z"></path></g><path d="M105.081 269.835s4.557 22.437 7.63 26.156 16.457 13.731 16.457 13.731l7.966-1.663 5.704 4.784-3.731 2.942-4.413-1.662c-2.409.426-4.85.638-7.296.634-4.114 0-20.822-9.831-24.135-15.357s-7.954-26.312-7.954-26.312l9.772-3.253z" class="O"></path><g class="E"><use xlink:href="#AM"></use><path d="M121.406 262.276l3.588-7.176 2.966 1.591s2.751 6.949.646 7.678c-1.28.443-1.77-2.798-3.038-3.277-.981-.335-4.162 1.184-4.162 1.184z"></path></g><g class="B J"><use xlink:href="#AM"></use><path d="M121.406 262.277l3.588-7.176 2.966 1.59s2.751 6.949.646 7.679c-1.28.442-1.77-2.799-3.038-3.277-.981-.335-4.162 1.184-4.162 1.184z"></path></g><use xlink:href="#AN" class="E"></use><use xlink:href="#AN" class="B D"></use><path d="M94.341 279.63l1.064 2.739 13.312-3.432-.539-2.739-13.837 3.432z" class="E"></path><path d="M94.341 279.63l1.064 2.739 13.312-3.432-.539-2.739-13.837 3.432z" class="B H"></path><path d="M115.33 245.281c0-.455-.107-.897-.167-1.328l10.13 8.002c-.367 1.119-.615 2.273-.741 3.444-6.148.048-8.444-6.721-9.222-10.118z" class="F H"></path><path d="M117.077 232.281c-2.117 7.176-3.17 10.154-.933 14.973 3.348 7.332 12.594 8.372 16.744 1.986 3.755-5.753 6.649-16.469.777-21.743-1.283-1.169-2.844-1.989-4.534-2.384s-3.452-.349-5.12.13-3.185 1.378-4.407 2.61-2.109 2.756-2.575 4.428h.048z" class="O"></path><path d="M125.126 239.456c-.204.563-.072 1.137.311 1.268s.837-.215 1.04-.777.072-1.196-.299-1.28-.837.203-1.052.789zm6.434 2.333c-.215.574-.072 1.196.287 1.28s.849-.216 1.053-.79.071-1.196-.299-1.279-.826.263-1.041.789z" class="C"></path><path d="M129.407 241.956c.359 1.435.911 2.815 1.639 4.103a2.57 2.57 0 0 1-1.08.312c-.378.022-.757-.039-1.109-.181l.55-4.234z" fill="#ed893e"></path><path d="M124.874 236.287c.053.055.123.092.198.105a.36.36 0 0 0 .221-.033 4.24 4.24 0 0 1 1.725-.198c.582.054 1.147.227 1.66.509.04.023.085.037.132.042a.35.35 0 0 0 .137-.012c.044-.013.087-.036.122-.066a.35.35 0 0 0 .132-.237.35.35 0 0 0-.01-.137c-.012-.045-.033-.087-.062-.123s-.064-.067-.104-.089c-.613-.336-1.289-.54-1.985-.6a5.03 5.03 0 0 0-2.058.253c-.085.042-.151.115-.183.205s-.025.188.016.274c.009.04.03.078.059.107zm10.478 4.27c.055.029.116.044.179.044s.124-.015.179-.044a.37.37 0 0 0 .18-.467c-.214-.527-.549-.997-.98-1.369a3.59 3.59 0 0 0-1.496-.772c-.087 0-.171.031-.238.086s-.112.133-.127.218a.37.37 0 0 0 .233.414c.437.108.841.319 1.18.614s.603.667.77 1.084c.024.073.065.138.12.192zm-19.675-4.078a2.48 2.48 0 0 0 1.91-1.003c.222-.3.373-.647.442-1.014s.054-.745-.043-1.105c0 0 4.437-.12 4.628-3.373 0 0 3.875 3.433 5.239.754 0 0 4.784 4.246 5.382 1.435 0 0 4.927 6.123 4.676 2.392 0 0 5.561-.562.562-5.37 0 0 4.569-3.995-2.811-5.621 0 0 .646-4.784-4.544-2.655 0 0-1.196-5.155-5.693-2.153 0 0-2.392-3.588-5.095 1.196 0 0-3.923-2.237-5.167 2.822 0 0-7.092.861-4.174 5.526 0 0 2.189 15.656 4.174 15.656 1.351-.012.514-7.487.514-7.487z" class="C"></path><path d="M113.237 237.184a5.45 5.45 0 0 0 1.711 3.791c1.387 1.304 2.978.264 3.313-1.507s0-4.209-1.806-4.784c-.305-.109-.628-.156-.951-.138s-.639.103-.928.247a2.4 2.4 0 0 0-.757.592 2.41 2.41 0 0 0-.582 1.799z" class="O"></path><path d="M126.704 248.116c.25.075.506.127.766.155.039.007.08-.001.114-.024s.057-.056.065-.095c.002-.021-.001-.041-.007-.061a.14.14 0 0 0-.03-.053.15.15 0 0 0-.048-.038c-.018-.009-.038-.014-.058-.016-.658-.07-1.289-.294-1.844-.653s-1.017-.845-1.35-1.416c-.009-.019-.021-.037-.037-.051s-.035-.025-.055-.032-.041-.009-.062-.007a.16.16 0 0 0-.138.105c-.013.038-.011.08.005.117a4.36 4.36 0 0 0 1.13 1.306 4.35 4.35 0 0 0 1.549.763z" class="C"></path><use xlink:href="#AO" class="E"></use><use xlink:href="#AO" class="B G"></use><defs><path id="B" d="M227.096 108.208h-5.98v-5.98c-.001-.394.075-.783.225-1.147s.369-.693.647-.971a2.98 2.98 0 0 1 2.118-.872 2.99 2.99 0 0 1 2.99 2.99v5.98z"></path><path id="C" d="M395.386 107.538H202.614c-3.725 0-6.745 3.02-6.745 6.745v99.926c0 3.725 3.02 6.745 6.745 6.745h192.772c3.725 0 6.745-3.02 6.745-6.745v-99.926c0-3.725-3.02-6.745-6.745-6.745z"></path><path id="D" d="M395.386 223.944H202.614c-2.581-.003-5.055-1.03-6.88-2.855s-2.852-4.299-2.855-6.88v-99.926c.003-2.581 1.03-5.055 2.855-6.88a9.74 9.74 0 0 1 6.88-2.855h192.772a9.74 9.74 0 0 1 6.88 2.855c1.825 1.825 2.852 4.299 2.855 6.88v99.926c-.003 2.581-1.03 5.055-2.855 6.88s-4.299 2.852-6.88 2.855zM202.614 110.528c-.995.003-1.948.399-2.652 1.103a3.77 3.77 0 0 0-1.103 2.652v99.926a3.77 3.77 0 0 0 3.755 3.755h192.772a3.77 3.77 0 0 0 3.755-3.755v-99.926a3.77 3.77 0 0 0-1.103-2.652c-.704-.704-1.657-1.1-2.652-1.103H202.614z"></path><path id="E" d="M259.986 130.178c7.703.359 17.163 5.083 19.136 13.311 2.392 9.903-10.764 13.934-18.143 14.173-7.021.215-18.969-2.284-20.2-10.764-1.388-9.676 12.486-11.733 19.243-11.888.107-.018.203-.072.273-.154s.108-.187.108-.295-.038-.212-.108-.294a.45.45 0 0 0-.273-.154c-7.032.167-20.332 2.153-20.332 11.661 0 9.867 13.718 13.06 21.265 12.833s19.77-3.911 19.304-13.407-11.889-15.488-20.261-15.871c-.586 0-.586.873 0 .897l-.012-.048z"></path><path id="F" d="M236.366 181.738l.263 7.678c0 .753.837.299-.455.275s-2.392.084-3.659.12l-9.365.322a34.39 34.39 0 0 0-3.66.132c-1.292.191-.419.311-.49-.072-.503-2.679-.204-5.776-.299-8.515-.066-.476-.066-.959 0-1.435.179-.586-.706.37-.299.191.855-.164 1.73-.197 2.595-.096l15.775-.538c.574 0 .586-.921 0-.897l-18.526.634a.45.45 0 0 0-.313.137c-.083.085-.129.199-.129.317l.37 10.764a.46.46 0 0 0 .129.318c.083.085.196.134.314.137l18.526-.646c.118-.003.23-.05.314-.132a.47.47 0 0 0 .141-.31l-.288-8.372c0-.575-.92-.575-.897 0l-.047-.012z"></path><path id="G" d="M281.634 182.479c.12 3.517.849 7.475.371 10.944-.179 1.351.969.227-.825.574a36.19 36.19 0 0 1-5.215.179l-13.335.467c-1.699 0-3.505.287-5.215.179s-.526.586-.897-.287c-1.28-3.026-.299-8.827-.418-12.139 0-1.196.179-2.261-.299-1.974.705-.43 2.822-.096 3.695-.119l22.473-.778c.574 0 .574-.921 0-.897l-26.396.909c-.119.003-.233.052-.318.137s-.133.198-.136.318l.538 15.32a.44.44 0 0 0 .03.172c.022.054.055.103.096.145s.091.074.145.096a.44.44 0 0 0 .172.03l26.395-.909a.44.44 0 0 0 .443-.443l-.407-11.96c0-.574-.921-.574-.897 0v.036z"></path><path id="H" d="M381.261 131.757a62.11 62.11 0 0 1 .239 6.996c-.155 2.201.969.562-.622 1.196-3.42 1.28-9.221.323-12.905.455l-16.887.574c-1.926.072-3.863.215-5.789.203-.323 0-1.196.215-1.447 0-.873-.502.622 1.053 0-.143-.825-1.627-.179-5.335-.239-7.176 0-.455-.419-2.668-.108-3.05-.239.299-.442.586.275.263 2.919-1.34 9.03-.311 12.164-.419l25.678-.885c.574 0 .574-.921 0-.897l-38.571 1.328c-.12.003-.234.052-.318.136s-.134.199-.137.318l.383 11.003c.003.119.052.231.137.314s.199.129.317.129l38.571-1.304c.119 0 .233-.046.318-.129a.45.45 0 0 0 .137-.313l-.299-8.564c0-.574-.921-.574-.897 0v-.035z"></path><path id="I" d="M388.413 146.336h-51.32c-.107.018-.203.072-.273.154s-.108.187-.108.295.038.212.108.294a.45.45 0 0 0 .273.154h51.32c.106-.017.203-.072.273-.154s.108-.187.108-.294-.038-.212-.108-.295a.46.46 0 0 0-.273-.154z"></path><path id="J" d="M383.916 156.263h-25.69c-.106.017-.203.072-.273.154a.45.45 0 0 0-.108.294.45.45 0 0 0 .108.294c.07.083.167.137.273.155h25.69c.106-.018.203-.072.273-.155a.45.45 0 0 0 .108-.294.45.45 0 0 0-.108-.294c-.07-.082-.167-.137-.273-.154z"></path><path id="K" d="M376.884 160.222h-18.658c-.106.017-.203.072-.273.154a.45.45 0 0 0-.108.294.45.45 0 0 0 .108.294c.07.083.167.137.273.155h18.658a.45.45 0 0 0 .272-.155c.07-.082.109-.186.109-.294s-.039-.212-.109-.294a.45.45 0 0 0-.272-.154z"></path><path id="L" d="M275.917 144.1h-25.654a.45.45 0 0 0-.381.448.45.45 0 0 0 .108.294c.07.083.166.137.273.155h25.654c.106-.018.203-.072.273-.155a.45.45 0 0 0 .108-.294.45.45 0 0 0-.108-.294c-.07-.082-.167-.137-.273-.154z"></path><path id="M" d="M268.92 148.058h-18.657c-.107.018-.203.072-.273.155a.45.45 0 0 0-.108.294.45.45 0 0 0 .381.448h18.657a.45.45 0 0 0 .381-.448.45.45 0 0 0-.381-.449z"></path><path id="N" d="M383.737 170.842h-25.655a.45.45 0 0 0-.272.155c-.07.082-.109.186-.109.294s.039.212.109.294a.45.45 0 0 0 .272.154h25.655a.45.45 0 0 0 .272-.154c.07-.082.109-.186.109-.294s-.039-.212-.109-.294a.45.45 0 0 0-.272-.155z"></path><path id="O" d="M370.904 190.289h-12.822a.45.45 0 0 0-.272.154c-.07.082-.109.187-.109.295s.039.212.109.294a.45.45 0 0 0 .272.154h12.822a.45.45 0 0 0 .272-.154c.07-.082.109-.187.109-.294s-.039-.213-.109-.295a.45.45 0 0 0-.272-.154z"></path><path id="P" d="M233.507 185.421h-12.833c-.106.018-.203.072-.273.155a.45.45 0 0 0-.108.294.45.45 0 0 0 .108.294c.07.082.167.137.273.154h12.833c.106-.017.203-.072.273-.154a.45.45 0 0 0 .108-.294.45.45 0 0 0-.108-.294c-.07-.083-.167-.137-.273-.155z"></path><path id="Q" d="M276.276 185.648l-15.213 1.196c-.574 0-.586.945 0 .897l15.213-1.196c.574 0 .586-.944 0-.897z"></path><path id="R" d="M312.407 165.233h-14.029c-.106.017-.203.072-.273.154a.45.45 0 0 0-.108.294.45.45 0 0 0 .108.294c.07.083.167.137.273.155h14.029c.107-.018.203-.072.273-.155a.45.45 0 0 0 .108-.294.45.45 0 0 0-.381-.448z"></path><path id="S" d="M383.737 186.737h-25.655a.45.45 0 0 0-.272.154c-.07.082-.109.187-.109.294s.039.212.109.295.166.136.272.154h25.655c.106-.018.203-.072.272-.154s.109-.187.109-.295-.039-.212-.109-.294a.45.45 0 0 0-.272-.154z"></path><path id="T" d="M294.12 161.131l-.359 10.441c-.001.058.009.117.031.171s.054.104.095.145a.43.43 0 0 0 .146.096c.054.022.112.032.171.03l23.119.802c.116-.003.227-.051.309-.133s.13-.193.133-.31l.467-13.431a.46.46 0 0 0-.138-.314c-.085-.082-.198-.128-.317-.128l-23.107-.802c-.574 0-.574.873 0 .897l19.675.682c.741 0 2.499-.275 3.121.108s-.442-.838-.143-.132c.088.482.088.977 0 1.459-.527 3.445.645 7.655-.383 10.979-.251.814.897.12-.73.192-1.375 0-2.786-.096-4.162-.144l-12.079-.418-4.569-.156c-1.531-.024-.574.443-.67-.454-.311-3.086.227-6.471.335-9.568a.45.45 0 0 0-.154-.273c-.082-.07-.187-.108-.294-.108s-.213.038-.295.108a.45.45 0 0 0-.154.273l-.048-.012z"></path><path id="U" d="M243.769 158.643c-6.194 3.699-10.915 9.43-13.36 16.218-.191.55.67.777.862.239 2.381-6.563 6.957-12.102 12.952-15.68.491-.299 0-1.076-.454-.777z"></path><path id="V" d="M228.436 170.316l1.196 6.973c.06.37.514.394.754.203l5.776-4.784c.443-.371-.191-1.005-.634-.634l-5.776 4.784.741.191-1.196-6.972c-.095-.574-.957-.323-.861.239z"></path><path id="W" d="M276.073 155.462a25.01 25.01 0 0 1 12.582 11.086c.275.515 1.052.06.777-.454-2.923-5.238-7.573-9.3-13.156-11.494-.538-.215-.765.646-.239.862h.036z"></path><path id="X" d="M289.6 162.159v5.849l.669-.383-5.358-3.17c-.103-.058-.225-.074-.339-.042s-.212.107-.271.21-.074.225-.042.339.107.212.21.271l5.358 3.169a.45.45 0 0 0 .224.054.46.46 0 0 0 .222-.062c.067-.04.123-.097.162-.164a.46.46 0 0 0 .062-.222v-5.849a.46.46 0 0 0-.155-.273.45.45 0 0 0-.294-.108.45.45 0 0 0-.294.108c-.082.07-.137.167-.154.273z"></path><path id="Y" d="M265.62 162.972c.777 3.696 1.363 7.428 1.889 11.171.084.562.945.323.862-.239-.515-3.744-1.101-7.475-1.89-11.171-.12-.562-.981-.323-.861.239z"></path><path id="Z" d="M349.292 160.234h-7.93l.455.442v-7.917l-.455.442h7.93l-.455-.442v7.917a.46.46 0 0 0 .155.273.45.45 0 0 0 .294.108.45.45 0 0 0 .448-.381v-7.917c.001-.119-.046-.233-.128-.318a.46.46 0 0 0-.314-.137h-7.93c-.118.003-.231.053-.313.137s-.129.199-.129.318v7.917a.45.45 0 0 0 .129.317c.082.085.195.135.313.138h7.93c.106-.018.203-.072.273-.155a.45.45 0 0 0 .108-.294.45.45 0 0 0-.108-.294c-.07-.082-.167-.137-.273-.154z"></path><path id="a" d="M349.292 174.813h-7.93l.455.442v-7.917l-.455.442h7.93l-.455-.442v7.917a.46.46 0 0 0 .155.273.45.45 0 0 0 .294.108.45.45 0 0 0 .448-.381v-7.917a.45.45 0 0 0-.128-.317c-.083-.085-.196-.135-.314-.138h-7.93c-.118.003-.231.053-.313.138a.45.45 0 0 0-.129.317v7.917c0 .119.046.233.129.318s.195.134.313.137h7.93a.46.46 0 0 0 .273-.154c.07-.083.108-.187.108-.295a.45.45 0 0 0-.108-.294c-.07-.082-.167-.137-.273-.154z"></path><path id="b" d="M349.292 189.38h-7.93l.455.454v-7.929l-.455.454h7.93l-.455-.454v7.929a.46.46 0 0 0 .155.273.45.45 0 0 0 .294.108.45.45 0 0 0 .448-.381v-7.929a.46.46 0 0 0-.442-.443h-7.93c-.116.003-.227.051-.309.133a.46.46 0 0 0-.133.31v7.929c.003.117.051.228.133.31s.193.13.309.133h7.93a.46.46 0 0 0 .273-.154c.07-.082.108-.187.108-.295s-.038-.212-.108-.294-.167-.137-.273-.154z"></path><path id="c" d="M339.246 154.433c2.002.868 3.757 2.22 5.107 3.935a.43.43 0 0 0 .138.143.44.44 0 0 0 .188.068.43.43 0 0 0 .198-.021c.064-.022.122-.059.169-.106 2.584-2.392 5.801-4.677 9.293-5.263.574-.095.335-.969-.227-.873-3.684.634-6.04 3.062-9.054 4.94-.969.61-.072.275-.395 0-.621-.443-1.124-1.196-1.746-1.663-.991-.784-2.076-1.443-3.229-1.961-.514-.239-.969.538-.442.765v.036z"></path><path id="d" d="M339.246 169.694a13.08 13.08 0 0 1 5.107 3.923.44.44 0 0 0 .136.146c.056.038.12.063.187.072s.135.003.199-.018.123-.057.171-.105c2.584-2.392 5.801-4.676 9.293-5.262.574-.096.335-.969-.227-.873-3.684.622-6.04 3.062-9.054 4.939-.969.61-.072.275-.395 0-.621-.454-1.124-1.196-1.746-1.662a15.36 15.36 0 0 0-3.229-1.973c-.514-.228-.969.538-.442.777v.036z"></path><path id="e" d="M339.246 183.592c2.002.861 3.758 2.209 5.107 3.922.033.059.08.109.136.147a.45.45 0 0 0 .187.072c.067.009.135.003.199-.019a.43.43 0 0 0 .171-.104c2.584-2.392 5.801-4.676 9.293-5.262.574-.108.335-.969-.227-.873-3.684.622-6.04 3.061-9.054 4.939-.969.61-.072.275-.395 0-.621-.454-1.124-1.196-1.746-1.662-.991-.789-2.075-1.451-3.229-1.974-.514-.227-.969.539-.442.778v.036z"></path><path id="f" d="M362.544 397.556c0 21.013 35.353 26.144 78.936 26.144s61.103-5.131 61.103-26.144-12.223-46.549-55.889-46.549-84.15 25.547-84.15 46.549z"></path><path id="g" d="M356.851 368.122c-1.615 28.884 6.374 44.479 24.589 45.448s34.278-21.588 35.88-50.471-16.744-51.021-34.947-52.038-23.92 28.166-25.522 57.061z"></path><path id="h" d="M447.304 324.839l-20.655-2.859a.64.64 0 0 1-.284-.11c-.085-.059-.154-.138-.202-.229a.65.65 0 0 1-.074-.296c-.001-.104.023-.205.07-.297l12.773-24.973c.17-.337.441-.612.776-.786a1.8 1.8 0 0 1 1.09-.183l20.655 2.859c.102.012.199.048.284.106a.62.62 0 0 1 .203.226c.048.09.074.191.074.294s-.024.204-.071.295L449.11 323.87a1.79 1.79 0 0 1-.751.768 1.8 1.8 0 0 1-1.055.201z"></path><path id="i" d="M448.093 324.983l-20.667-2.871c-.1-.013-.197-.051-.28-.109s-.151-.137-.198-.227-.072-.191-.072-.292a.65.65 0 0 1 .072-.293l12.821-24.984c.176-.335.45-.607.786-.781s.717-.239 1.092-.188l20.655 2.859a.64.64 0 0 1 .478.343c.047.092.071.192.071.295a.64.64 0 0 1-.071.294l-12.821 24.973a1.83 1.83 0 0 1-.777.786 1.84 1.84 0 0 1-1.089.195z"></path><path id="j" d="M459.48 302.402l-2.392-.335c-.008-.007-.014-.015-.018-.024s-.007-.019-.007-.03.002-.02.007-.029.01-.018.018-.024l1.471-2.883c.022-.036.054-.065.092-.084a.22.22 0 0 1 .123-.023l2.392.322c.008.007.014.015.018.025s.006.019.006.029-.002.021-.006.03-.01.017-.018.024l-1.471 2.859c-.016.044-.045.081-.084.107s-.085.039-.131.036z"></path><path id="k" d="M412.895 325.257l9.006-3.468c3.042 3.473 5.623 7.324 7.678 11.458 2.943 6.219-11.218 6.219-11.218 6.219l-4.461-8.372-1.005-5.837z"></path><path id="l" d="M394.608 331.345s-3.265 18.885 3.253 31.096 20.978 14.424 58.138-24.936c0 0 13.06 6.075 44.515 41.549l6.997-5.418s-27.377-44.468-40.604-55.016-42.602 19.136-46.322 17.461c-3.313-1.471-4.879-11.744-4.879-11.744l-21.098 7.008z"></path><path id="m" d="M427.989 362.74c7.511-5.179 16.744-13.287 28.01-25.247 0 0 10.764-3.983 14.508 3.695s6.183 63.173 6.183 63.173l-8.946 2.583s-16.003-50.088-15.907-53.389l-23.848 9.185z"></path><path id="n" d="M409.845 290.047l.144-.789.909-.539.753.24 8.229 13.718.179 1.327-.909.551-1.088-.79-8.217-13.718z"></path><path id="o" d="M273.262 424.286h-4.222l1.34-65.576h5.633l-2.751 65.576z"></path><path id="p" d="M342.522 424.286h4.222l-1.34-65.576h-5.633l2.751 65.576z"></path><path id="q" d="M347.019 281.041h-11.482c-5.98 0-12.426 3.122-14.124 8.899-4.784 16.361-8.372 67.645-8.372 67.645h30.737c1.802-.001 3.54-.666 4.881-1.869a7.32 7.32 0 0 0 2.39-4.649l6.435-58.365a10.52 10.52 0 0 0-.437-4.367 10.5 10.5 0 0 0-2.185-3.807 10.51 10.51 0 0 0-3.549-2.581c-1.351-.601-2.815-.91-4.294-.906z"></path><path id="r" d="M340.011 281.041h-11.482c-5.98 0-12.414 3.122-14.113 8.899-4.784 16.361-8.372 67.645-8.372 67.645h29.661a8.5 8.5 0 0 0 5.679-2.172c1.561-1.4 2.55-3.326 2.777-5.41l6.267-57.313a10.51 10.51 0 0 0-.442-4.35c-.45-1.403-1.191-2.695-2.173-3.794a10.51 10.51 0 0 0-3.529-2.582 10.53 10.53 0 0 0-4.273-.923z"></path><path id="s" d="M316.784 358.71h-44.922c-1.988 0-3.896-.79-5.302-2.197a7.5 7.5 0 0 1 0-10.605 7.5 7.5 0 0 1 5.302-2.196h44.922v14.998z"></path><path id="t" d="M344.232 358.71h-29.003c-1.903 0-3.728-.756-5.074-2.102a7.18 7.18 0 0 1-2.102-5.074v-.646a7.18 7.18 0 0 1 2.102-5.074c1.346-1.346 3.171-2.102 5.074-2.102h29.003a7.5 7.5 0 0 1 7.499 7.499 7.5 7.5 0 0 1-2.196 5.302c-1.406 1.407-3.314 2.197-5.303 2.197z"></path><path id="u" d="M329.605 306.086s16.649 37.829.658 37.829h-46.142s-1.997 10.059-9.185 65.35h-7.714s-1.292-64.764 2.978-74.415c3.337-7.571 24.769-12.989 34.911-14.974 1.33-.26 2.545-.928 3.476-1.913s1.53-2.235 1.715-3.577l2.248-9.293 17.055.993z"></path><path id="v" d="M307.802 263.197c-4.305-.646-6.733 9.951-6.96 19.949l10.213 2.392s4.796-21.121-3.253-22.341z"></path><path id="w" d="M338.253 263.161c-5.43-.646-3.995 11.482-4.653 19.985l10.142 1.196s2.584-20.224-5.489-21.181z"></path><path id="x" d="M315.481 263.711s-1.053 9.054 10.919.981a1.88 1.88 0 0 0 .658-2.332c-.54-1.122-.837-2.344-.873-3.588a1.03 1.03 0 0 0-.163-.51c-.098-.152-.235-.276-.396-.359a1.03 1.03 0 0 0-.523-.111c-.182.01-.357.067-.509.166-2.387 1.618-5.261 2.358-8.133 2.093-.168-.014-.337.013-.493.078s-.293.169-.401.299-.181.286-.214.452a1.04 1.04 0 0 0 .02.499 4.69 4.69 0 0 1 .108 2.332z"></path><path id="y" d="M336.793 308.812h-58.998a3.17 3.17 0 0 0-3.17 3.17v.98a3.17 3.17 0 0 0 3.17 3.17h58.998a3.17 3.17 0 0 0 3.17-3.17v-.98a3.17 3.17 0 0 0-3.17-3.17z"></path><path id="z" d="M281.634 308.812h-80.718a3.17 3.17 0 0 0-3.17 3.17v.98a3.17 3.17 0 0 0 3.17 3.17h80.718a3.17 3.17 0 0 0 3.169-3.17v-.98a3.17 3.17 0 0 0-3.169-3.17z"></path><path id="AA" d="M279.337 308.812c-.317 0-.621-.126-.845-.35s-.351-.528-.351-.846a1.19 1.19 0 0 1 1.196-1.196h33.13a1.19 1.19 0 0 1 1.196 1.196c0 .318-.126.622-.351.846s-.528.35-.845.35h-33.13z"></path><path id="AB" d="M278.536 308.801h-37.458c-.58-.018-1.136-.236-1.572-.618a2.5 2.5 0 0 1-.82-1.475l-4.402-31.383a1.77 1.77 0 0 1 .031-.783 1.76 1.76 0 0 1 .366-.693 1.75 1.75 0 0 1 .628-.467c.242-.107.505-.159.769-.15h37.459a2.49 2.49 0 0 1 1.574.614c.437.382.726.905.818 1.479l4.413 31.383a1.77 1.77 0 0 1-.405 1.475c-.173.201-.389.36-.631.467s-.505.158-.77.151z"></path><path id="AC" d="M140.016 413.917h-14.34l-29.278 5.537v4.88h6.028l23.25-4.389h14.34l23.25 4.389h6.028v-4.88l-29.278-5.537z"></path><path id="AD" d="M163.266 426.463h5.98a1.47 1.47 0 0 0 1.471-1.471 1.47 1.47 0 0 0-1.471-1.471h-5.98a1.47 1.47 0 0 0-1.471 1.471 1.47 1.47 0 0 0 1.471 1.471z"></path><path id="AE" d="M183.921 348.771h-56.535v-12.187h56.535a6.1 6.1 0 0 1 4.309 1.782 6.11 6.11 0 0 1 1.791 4.306 6.1 6.1 0 0 1-6.1 6.099z"></path><path id="AF" d="M134.646 278.518s-7.762-12.821-2.799-18.897 12.534 13.934 12.534 13.934l-9.735 4.963z"></path><path id="AG" d="M95.752 327.518s-9.724-34.038 1.686-67.897c0 0 14.795-6.889 35.88-1.83.575.136 1.117.385 1.594.733s.879.788 1.183 1.294.504 1.068.588 1.652a4.42 4.42 0 0 1-.1 1.751c-2.105 8.217-5.37 27.795 2.512 52.54-13.299 7.33-28.163 11.362-43.343 11.757z"></path><path id="AH" d="M121.298 316.981s63.042-21.839 68.244-1.77-42.577 33.907-67.61 33.07-.634-31.3-.634-31.3z"></path><path id="AI" d="M169.641 318.704h-28.369a2.39 2.39 0 0 1-1.692-.701c-.448-.449-.7-1.057-.7-1.691h33.213a2.39 2.39 0 0 1-.722 1.712c-.229.223-.499.398-.796.515a2.39 2.39 0 0 1-.934.165z"></path><path id="AJ" d="M148.759 318.704h-20.607a2.39 2.39 0 0 1-1.692-.701c-.448-.449-.7-1.057-.7-1.691h25.45a2.39 2.39 0 0 1-.721 1.712c-.229.223-.5.398-.797.515a2.38 2.38 0 0 1-.933.165z"></path><path id="AK" d="M169.832 317.962h-18.657c-.092-.001-.182-.023-.263-.065s-.151-.104-.204-.179-.087-.161-.099-.252-.003-.183.027-.27l8.301-23.728c.113-.319.322-.594.598-.789s.606-.299.944-.3h18.67c.092.001.182.023.263.066s.151.103.204.178.086.162.099.252.003.184-.028.27l-8.3 23.728c-.116.32-.327.596-.605.791s-.61.298-.95.298z"></path><path id="AL" d="M170.574 317.962h-18.682c-.092-.001-.182-.023-.263-.065s-.151-.104-.203-.179-.087-.161-.1-.252-.003-.183.028-.27l8.3-23.728a1.64 1.64 0 0 1 .599-.789c.276-.195.606-.299.944-.3h18.681c.092.001.182.023.263.066s.151.103.204.178a.57.57 0 0 1 .099.252c.013.091.003.184-.027.27l-8.301 23.728c-.113.319-.322.594-.598.789a1.64 1.64 0 0 1-.944.3z"></path><path id="AM" d="M111.623 256.249l2.846-1.651 6.937 7.678s-3.815-1.554-4.892-.92-.287 3.025-1.411 3.049c-2.499.036-3.48-8.156-3.48-8.156z"></path><path id="AN" d="M95.752 280.993s-5.274-15.966 1.686-21.372 10.202 18.418 10.202 18.418l-11.888 2.954z"></path><path id="AO" d="M75.348 244.85s-25.463 130.855 58.748 133.259c76.807 2.176 59.632-60.578 54.645-64.943s13.73 40.269-17.175 40.903c-37.267.754-44.024-34.684-56.511-34.971s-31.335 16.23-33.249-13.742 7.953-80.838-6.458-60.506z"></path></defs></svg>